<?xml version="1.0" encoding="UTF-8" standalone="no"?>
<!-- Created with Inkscape (http://www.inkscape.org/) -->

<svg
   xmlns:dc="http://purl.org/dc/elements/1.1/"
   xmlns:cc="http://creativecommons.org/ns#"
   xmlns:rdf="http://www.w3.org/1999/02/22-rdf-syntax-ns#"
   xmlns:svg="http://www.w3.org/2000/svg"
   xmlns="http://www.w3.org/2000/svg"
   xmlns:inkscape="http://www.inkscape.org/namespaces/inkscape"
   version="1.1"
   width="442.91376"
   height="318.89801"
   id="svg2"
   xml:space="preserve"><metadata
     id="metadata8"><rdf:RDF><cc:Work
         rdf:about=""><dc:format>image/svg+xml</dc:format><dc:type
           rdf:resource="http://purl.org/dc/dcmitype/StillImage" /></cc:Work></rdf:RDF></metadata><defs
     id="defs6" /><g
     transform="matrix(1.25,0,0,-1.25,0,318.89801)"
     id="g10"><g
       transform="scale(1,-1)"
       id="g12"><path
         d="m 24.74609,-236.07666 c 0,0 0,36.25 0,36.25"
         inkscape:connector-curvature="0"
         id="path14"
         style="fill:none;stroke:#231f20;stroke-width:0.5;stroke-linecap:butt;stroke-linejoin:miter;stroke-miterlimit:4;stroke-opacity:1;stroke-dasharray:none" /><path
         d="m 121.49609,-236.07666 c 0,0 0,36.25 0,36.25"
         inkscape:connector-curvature="0"
         id="path16"
         style="fill:none;stroke:#231f20;stroke-width:0.5;stroke-linecap:butt;stroke-linejoin:miter;stroke-miterlimit:4;stroke-opacity:1;stroke-dasharray:none" /><path
         d="m 24.74609,-200.07666 c 0,0 -10.5,26.75 -10.5,26.75"
         inkscape:connector-curvature="0"
         id="path18"
         style="fill:none;stroke:#231f20;stroke-width:0.5;stroke-linecap:butt;stroke-linejoin:miter;stroke-miterlimit:4;stroke-opacity:1;stroke-dasharray:none" /><path
         d="m 121.49609,-200.07666 c 0,0 10.5,26.75 10.5,26.75"
         inkscape:connector-curvature="0"
         id="path20"
         style="fill:none;stroke:#231f20;stroke-width:0.5;stroke-linecap:butt;stroke-linejoin:miter;stroke-miterlimit:4;stroke-opacity:1;stroke-dasharray:none" /><path
         d="m 52.99609,-200.07666 c 0,0 -10.5,26.75 -10.5,26.75"
         inkscape:connector-curvature="0"
         id="path22"
         style="fill:none;stroke:#231f20;stroke-width:0.5;stroke-linecap:butt;stroke-linejoin:miter;stroke-miterlimit:4;stroke-opacity:1;stroke-dasharray:none" /><path
         d="m 94.49609,-200.07666 c 0,0 10.5,26.75 10.5,26.75"
         inkscape:connector-curvature="0"
         id="path24"
         style="fill:none;stroke:#231f20;stroke-width:0.5;stroke-linecap:butt;stroke-linejoin:miter;stroke-miterlimit:4;stroke-opacity:1;stroke-dasharray:none" /><path
         d="m 94.49609,-200.07666 c 0,0 0,26.75 0,26.75"
         inkscape:connector-curvature="0"
         id="path26"
         style="fill:none;stroke:#231f20;stroke-width:0.5;stroke-linecap:butt;stroke-linejoin:miter;stroke-miterlimit:4;stroke-opacity:1;stroke-dasharray:none" /><path
         d="m 52.99609,-200.07666 c 0,0 0,26.75 0,26.75"
         inkscape:connector-curvature="0"
         id="path28"
         style="fill:none;stroke:#231f20;stroke-width:0.5;stroke-linecap:butt;stroke-linejoin:miter;stroke-miterlimit:4;stroke-opacity:1;stroke-dasharray:none" /><g
         transform="scale(1,-1)"
         id="g30"><text
           transform="matrix(1,0,0,-1,11.02393,162.36719)"
           id="text32"><tspan
             x="0 5.776 10.224 12.888 14.664 18.664 23.112 27.559999"
             y="0"
             id="tspan34"
             style="font-size:8px;font-variant:normal;font-weight:normal;writing-mode:lr-tb;fill:#231f20;fill-opacity:1;fill-rule:nonzero;stroke:none;font-family:ArialMT;-inkscape-font-specification:ArialMT">Derived </tspan></text>
<text
           transform="matrix(1,0,0,-1,4.12158,154.36719)"
           id="text36"><tspan
             x="0 4.448 8.8959999 13.344 17.792 19.568001 24.016001 26.24 28.016001 32.464001 36.911999 39.136002"
             y="0"
             id="tspan38"
             style="font-size:8px;font-variant:normal;font-weight:normal;writing-mode:lr-tb;fill:#231f20;fill-opacity:1;fill-rule:nonzero;stroke:none;font-family:ArialMT;-inkscape-font-specification:ArialMT">population 1</tspan></text>
<text
           transform="matrix(1,0,0,-1,107.77393,162.36719)"
           id="text40"><tspan
             x="0 5.776 10.224 12.888 14.664 18.664 23.112 27.559999"
             y="0"
             id="tspan42"
             style="font-size:8px;font-variant:normal;font-weight:normal;writing-mode:lr-tb;fill:#231f20;fill-opacity:1;fill-rule:nonzero;stroke:none;font-family:ArialMT;-inkscape-font-specification:ArialMT">Derived </tspan></text>
<text
           transform="matrix(1,0,0,-1,100.87158,154.36719)"
           id="text44"><tspan
             x="0 4.448 8.8959999 13.344 17.792 19.568001 24.016001 26.24 28.016001 32.464001 36.911999 39.136002"
             y="0"
             id="tspan46"
             style="font-size:8px;font-variant:normal;font-weight:normal;writing-mode:lr-tb;fill:#231f20;fill-opacity:1;fill-rule:nonzero;stroke:none;font-family:ArialMT;-inkscape-font-specification:ArialMT">population 2</tspan></text>
<text
           transform="matrix(1,0,0,-1,58.65869,162.36719)"
           id="text48"><tspan
             x="0 5.336 9.7840004 12.448 16.896 21.344 23.568001 28.016001 29.792"
             y="0"
             id="tspan50"
             style="font-size:8px;font-variant:normal;font-weight:normal;writing-mode:lr-tb;fill:#231f20;fill-opacity:1;fill-rule:nonzero;stroke:none;font-family:ArialMT;-inkscape-font-specification:ArialMT">Parental </tspan></text>
<text
           transform="matrix(1,0,0,-1,56.20752,154.36719)"
           id="text52"><tspan
             x="0 4.448 8.8959999 13.344 17.792 19.568001 24.016001 26.24 28.016001 32.464001"
             y="0"
             id="tspan54"
             style="font-size:8px;font-variant:normal;font-weight:normal;writing-mode:lr-tb;fill:#231f20;fill-opacity:1;fill-rule:nonzero;stroke:none;font-family:ArialMT;-inkscape-font-specification:ArialMT">population</tspan></text>
<g
           transform="scale(1,-1)"
           id="g56"><path
             d="m 271.95996,-162.07666 c 0,0 -41.50098,0 -41.50098,0 0,0 0,-4.5 0,-4.5 0,0 41.50098,0 41.50098,0 0,0 0,4.5 0,4.5 z"
             inkscape:connector-curvature="0"
             id="path58"
             style="fill:#ed1c24;fill-opacity:1;fill-rule:nonzero;stroke:none" /><path
             d="m 309.95996,-162.32666 c 0,0 -27.5,0 -27.5,0 0,0 0,-4.5 0,-4.5 0,0 27.5,0 27.5,0 0,0 0,4.5 0,4.5 z"
             inkscape:connector-curvature="0"
             id="path60"
             style="fill:#ed1c24;fill-opacity:1;fill-rule:nonzero;stroke:none" /><path
             d="m 219.70898,-162.07666 c 0,0 -20.5,0 -20.5,0 0,0 0,-4.5 0,-4.5 0,0 20.5,0 20.5,0 0,0 0,4.5 0,4.5 z"
             inkscape:connector-curvature="0"
             id="path62"
             style="fill:#ed1c24;fill-opacity:1;fill-rule:nonzero;stroke:none" /><path
             d="m 214.20996,-162.07666 c 0,0 -22.75098,0 -22.75098,0 0,0 0,-4.5 0,-4.5 0,0 22.75098,0 22.75098,0 0,0 0,4.5 0,4.5 z"
             inkscape:connector-curvature="0"
             id="path64"
             style="fill:#2e3192;fill-opacity:1;fill-rule:nonzero;stroke:none" /><g
             transform="scale(1,-1)"
             id="g66"><text
               transform="matrix(1,0,0,-1,192.20947,149.24316)"
               id="text68"><tspan
                 x="0 5.776 7.552 12 16.448 18.672001 23.559999 27.559999"
                 y="0"
                 id="tspan70"
                 style="font-size:8px;font-variant:normal;font-weight:normal;writing-mode:lr-tb;fill:#231f20;fill-opacity:1;fill-rule:nonzero;stroke:none;font-family:ArialMT;-inkscape-font-specification:ArialMT">High Fst</tspan></text>
<text
               transform="matrix(1,0,0,-1,281.04346,149.24414)"
               id="text72"><tspan
                 x="0 5.776 7.552 12 16.448 18.672001 23.559999 27.559999"
                 y="0"
                 id="tspan74"
                 style="font-size:8px;font-variant:normal;font-weight:normal;writing-mode:lr-tb;fill:#231f20;fill-opacity:1;fill-rule:nonzero;stroke:none;font-family:ArialMT;-inkscape-font-specification:ArialMT">High Fst</tspan></text>
<g
               transform="scale(1,-1)"
               id="g76"><path
                 d="m 309.95996,-162.32666 c 0,0 -23.5,0 -23.5,0 0,0 0,-4.5 0,-4.5 0,0 23.5,0 23.5,0 0,0 0,4.5 0,4.5 z"
                 inkscape:connector-curvature="0"
                 id="path78"
                 style="fill:#00adef;fill-opacity:1;fill-rule:nonzero;stroke:none" /><path
                 d="m 290.75098,-180.53467 c 0,0 -4.5,7 -4.5,7"
                 inkscape:connector-curvature="0"
                 id="path80"
                 style="fill:none;stroke:#231f20;stroke-width:0.5;stroke-linecap:butt;stroke-linejoin:miter;stroke-miterlimit:4;stroke-opacity:1;stroke-dasharray:none" /><path
                 d="m 205.12598,-116.32715 c 0,0 0,36.25 0,36.25"
                 inkscape:connector-curvature="0"
                 id="path82"
                 style="fill:none;stroke:#231f20;stroke-width:0.5;stroke-linecap:butt;stroke-linejoin:miter;stroke-miterlimit:4;stroke-opacity:1;stroke-dasharray:none" /><path
                 d="m 301.87598,-116.32715 c 0,0 0,36.25 0,36.25"
                 inkscape:connector-curvature="0"
                 id="path84"
                 style="fill:none;stroke:#231f20;stroke-width:0.5;stroke-linecap:butt;stroke-linejoin:miter;stroke-miterlimit:4;stroke-opacity:1;stroke-dasharray:none" /><path
                 d="m 205.12598,-80.32715 c 0,0 -10.5,26.75 -10.5,26.75"
                 inkscape:connector-curvature="0"
                 id="path86"
                 style="fill:none;stroke:#231f20;stroke-width:0.5;stroke-linecap:butt;stroke-linejoin:miter;stroke-miterlimit:4;stroke-opacity:1;stroke-dasharray:none" /><path
                 d="m 301.87598,-80.32715 c 0,0 10.5,26.75 10.5,26.75"
                 inkscape:connector-curvature="0"
                 id="path88"
                 style="fill:none;stroke:#231f20;stroke-width:0.5;stroke-linecap:butt;stroke-linejoin:miter;stroke-miterlimit:4;stroke-opacity:1;stroke-dasharray:none" /><path
                 d="m 233.37598,-80.32715 c 0,0 -10.5,26.75 -10.5,26.75"
                 inkscape:connector-curvature="0"
                 id="path90"
                 style="fill:none;stroke:#231f20;stroke-width:0.5;stroke-linecap:butt;stroke-linejoin:miter;stroke-miterlimit:4;stroke-opacity:1;stroke-dasharray:none" /><path
                 d="m 274.87598,-80.32715 c 0,0 10.5,26.75 10.5,26.75"
                 inkscape:connector-curvature="0"
                 id="path92"
                 style="fill:none;stroke:#231f20;stroke-width:0.5;stroke-linecap:butt;stroke-linejoin:miter;stroke-miterlimit:4;stroke-opacity:1;stroke-dasharray:none" /><path
                 d="m 274.87598,-80.32715 c 0,0 0,26.75 0,26.75"
                 inkscape:connector-curvature="0"
                 id="path94"
                 style="fill:none;stroke:#231f20;stroke-width:0.5;stroke-linecap:butt;stroke-linejoin:miter;stroke-miterlimit:4;stroke-opacity:1;stroke-dasharray:none" /><path
                 d="m 233.37598,-80.32715 c 0,0 0,26.75 0,26.75"
                 inkscape:connector-curvature="0"
                 id="path96"
                 style="fill:none;stroke:#231f20;stroke-width:0.5;stroke-linecap:butt;stroke-linejoin:miter;stroke-miterlimit:4;stroke-opacity:1;stroke-dasharray:none" /><path
                 d="m 269.625,-97.07715 c 0,0 -36.74902,0 -36.74902,0 0,0 0,-9.25 0,-9.25 0,0 36.74902,0 36.74902,0 0,0 0,9.25 0,9.25 z"
                 inkscape:connector-curvature="0"
                 id="path98"
                 style="fill:none;stroke:#231f20;stroke-width:0.5;stroke-linecap:butt;stroke-linejoin:miter;stroke-miterlimit:4;stroke-opacity:1;stroke-dasharray:none" /><g
                 transform="scale(1,-1)"
                 id="g100"><text
                   transform="matrix(1,0,0,-1,239.625,98.82617)"
                   id="text102"><tspan
                     x="0"
                     y="0"
                     id="tspan104"
                     style="font-size:8px;font-variant:normal;font-weight:normal;writing-mode:lr-tb;fill:#ed1c24;fill-opacity:1;fill-rule:nonzero;stroke:none;font-family:ArialMT;-inkscape-font-specification:ArialMT">A</tspan></text>
<g
                   transform="scale(1,-1)"
                   id="g106"><path
                     d="m 196.37598,-74.57715 c 0,0 -36.75,0 -36.75,0 0,0 0,-9.25 0,-9.25 0,0 36.75,0 36.75,0 0,0 0,9.25 0,9.25 z"
                     inkscape:connector-curvature="0"
                     id="path108"
                     style="fill:none;stroke:#231f20;stroke-width:0.5;stroke-linecap:butt;stroke-linejoin:miter;stroke-miterlimit:4;stroke-opacity:1;stroke-dasharray:none" /><path
                     d="m 274.87598,-42.32715 c 0,0 -41.5,0 -41.5,0 0,0 0,-4.5 0,-4.5 0,0 41.5,0 41.5,0 0,0 0,4.5 0,4.5 z"
                     inkscape:connector-curvature="0"
                     id="path110"
                     style="fill:#ed1c24;fill-opacity:1;fill-rule:nonzero;stroke:none" /><path
                     d="m 196.37598,-74.57715 c 0,0 4.25,16.5 4.25,16.5"
                     inkscape:connector-curvature="0"
                     id="path112"
                     style="fill:none;stroke:#231f20;stroke-width:0.5;stroke-linecap:butt;stroke-linejoin:miter;stroke-miterlimit:4;stroke-opacity:1;stroke-dasharray:2, 2;stroke-dashoffset:0" /><path
                     d="m 312.87598,-42.57715 c 0,0 -27.5,0 -27.5,0 0,0 0,-4.5 0,-4.5 0,0 27.5,0 27.5,0 0,0 0,4.5 0,4.5 z"
                     inkscape:connector-curvature="0"
                     id="path114"
                     style="fill:#ed1c24;fill-opacity:1;fill-rule:nonzero;stroke:none" /><path
                     d="m 222.62598,-42.32715 c 0,0 -20.5,0 -20.5,0 0,0 0,-4.5 0,-4.5 0,0 20.5,0 20.5,0 0,0 0,4.5 0,4.5 z"
                     inkscape:connector-curvature="0"
                     id="path116"
                     style="fill:#ed1c24;fill-opacity:1;fill-rule:nonzero;stroke:none" /><path
                     d="m 217.12793,-42.32715 c 0,0 -22.75195,0 -22.75195,0 0,0 0,-4.5 0,-4.5 0,0 22.75195,0 22.75195,0 0,0 0,4.5 0,4.5 z"
                     inkscape:connector-curvature="0"
                     id="path118"
                     style="fill:#2e3192;fill-opacity:1;fill-rule:nonzero;stroke:none" /><g
                     transform="scale(1,-1)"
                     id="g120"><text
                       transform="matrix(1,0,0,-1,195.12646,29.49316)"
                       id="text122"><tspan
                         x="0 5.776 7.552 12 16.448 18.672001 23.559999 27.559999"
                         y="0"
                         id="tspan124"
                         style="font-size:8px;font-variant:normal;font-weight:normal;writing-mode:lr-tb;fill:#231f20;fill-opacity:1;fill-rule:nonzero;stroke:none;font-family:ArialMT;-inkscape-font-specification:ArialMT">High Fst</tspan></text>
<text
                       transform="matrix(1,0,0,-1,283.96045,29.49414)"
                       id="text126"><tspan
                         x="0 4.448 8.8959999 14.672 16.896 21.784 25.784"
                         y="0"
                         id="tspan128"
                         style="font-size:8px;font-variant:normal;font-weight:normal;writing-mode:lr-tb;fill:#231f20;fill-opacity:1;fill-rule:nonzero;stroke:none;font-family:ArialMT;-inkscape-font-specification:ArialMT">Low Fst</tspan></text>
<g
                       transform="scale(1,-1)"
                       id="g130"><path
                         d="m 312.00098,-84.20215 c 0,0 -5.375,26.875 -5.375,26.875"
                         inkscape:connector-curvature="0"
                         id="path132"
                         style="fill:none;stroke:#231f20;stroke-width:0.5;stroke-linecap:butt;stroke-linejoin:miter;stroke-miterlimit:4;stroke-opacity:1;stroke-dasharray:2, 2;stroke-dashoffset:0" /><path
                         d="m 312.87598,-42.57715 c 0,0 -27.66797,0 -27.66797,0 0,0 0,-4.5 0,-4.5 0,0 27.66797,0 27.66797,0 0,0 0,4.5 0,4.5 z"
                         inkscape:connector-curvature="0"
                         id="path134"
                         style="fill:#ed1c24;fill-opacity:1;fill-rule:nonzero;stroke:none" /><path
                         d="m 348.37598,-84.32715 c 0,0 -36.75,0 -36.75,0 0,0 0,-9.25 0,-9.25 0,0 36.75,0 36.75,0 0,0 0,9.25 0,9.25 z"
                         inkscape:connector-curvature="0"
                         id="path136"
                         style="fill:none;stroke:#231f20;stroke-width:0.5;stroke-linecap:butt;stroke-linejoin:miter;stroke-miterlimit:4;stroke-opacity:1;stroke-dasharray:none" /><path
                         d="m 203.41895,-76.53613 c 0,0 4.24804,14.08398 4.24804,14.08398"
                         inkscape:connector-curvature="0"
                         id="path138"
                         style="fill:none;stroke:#231f20;stroke-width:0.5;stroke-linecap:butt;stroke-linejoin:miter;stroke-miterlimit:4;stroke-opacity:1;stroke-dasharray:none" /><path
                         d="m 212.79395,-61.53613 c 0,0 4.625,7.83398 4.625,7.83398"
                         inkscape:connector-curvature="0"
                         id="path140"
                         style="fill:none;stroke:#231f20;stroke-width:0.5;stroke-linecap:butt;stroke-linejoin:miter;stroke-miterlimit:4;stroke-opacity:1;stroke-dasharray:none" /><path
                         d="m 302.91699,-77.78613 c 0,0 -9,8.25 -9,8.25"
                         inkscape:connector-curvature="0"
                         id="path142"
                         style="fill:none;stroke:#231f20;stroke-width:0.5;stroke-linecap:butt;stroke-linejoin:miter;stroke-miterlimit:4;stroke-opacity:1;stroke-dasharray:none" /><path
                         d="m 293.91699,-69.53613 c 0,0 -4.75,15.75 -4.75,15.75"
                         inkscape:connector-curvature="0"
                         id="path144"
                         style="fill:none;stroke:#231f20;stroke-width:0.5;stroke-linecap:butt;stroke-linejoin:miter;stroke-miterlimit:4;stroke-opacity:1;stroke-dasharray:none" /><g
                         transform="scale(1,-1)"
                         id="g146"><text
                           transform="matrix(1,0,0,-1,255.625,98.66016)"
                           id="text148"><tspan
                             x="0"
                             y="0"
                             id="tspan150"
                             style="font-size:8px;font-variant:normal;font-weight:normal;writing-mode:lr-tb;fill:#f68712;fill-opacity:1;fill-rule:nonzero;stroke:none;font-family:ArialMT;-inkscape-font-specification:ArialMT">C</tspan></text>
<text
                           transform="matrix(1,0,0,-1,166.95801,76.15918)"
                           id="text152"><tspan
                             x="0"
                             y="0"
                             id="tspan154"
                             style="font-size:8px;font-variant:normal;font-weight:normal;writing-mode:lr-tb;fill:#2e3192;fill-opacity:1;fill-rule:nonzero;stroke:none;font-family:ArialMT;-inkscape-font-specification:ArialMT">G</tspan></text>
<text
                           transform="matrix(1,0,0,-1,182.95801,75.99316)"
                           id="text156"><tspan
                             x="0"
                             y="0"
                             id="tspan158"
                             style="font-size:8px;font-variant:normal;font-weight:normal;writing-mode:lr-tb;fill:#f68712;fill-opacity:1;fill-rule:nonzero;stroke:none;font-family:ArialMT;-inkscape-font-specification:ArialMT">C</tspan></text>
<text
                           transform="matrix(1,0,0,-1,318.45801,86.15918)"
                           id="text160"><tspan
                             x="0"
                             y="0"
                             id="tspan162"
                             style="font-size:8px;font-variant:normal;font-weight:normal;writing-mode:lr-tb;fill:#ed1c24;fill-opacity:1;fill-rule:nonzero;stroke:none;font-family:ArialMT;-inkscape-font-specification:ArialMT">A</tspan></text>
<text
                           transform="matrix(1,0,0,-1,334.45801,85.99316)"
                           id="text164"><tspan
                             x="0"
                             y="0"
                             id="tspan166"
                             style="font-size:8px;font-variant:normal;font-weight:normal;writing-mode:lr-tb;fill:#00adef;fill-opacity:1;fill-rule:nonzero;stroke:none;font-family:ArialMT;-inkscape-font-specification:ArialMT">T</tspan></text>
<g
                           transform="scale(1,-1)"
                           id="g168"><path
                             d="m 222.29395,-19.82715 c 0,0 -28.25196,0 -28.25196,0 0,0 0,-4.5 0,-4.5 0,0 28.25196,0 28.25196,0 0,0 0,4.5 0,4.5 z"
                             inkscape:connector-curvature="0"
                             id="path170"
                             style="fill:#f68712;fill-opacity:1;fill-rule:nonzero;stroke:none" /><g
                             transform="scale(1,-1)"
                             id="g172"><text
                               transform="matrix(1,0,0,-1,195.12646,6.99316)"
                               id="text174"><tspan
                                 x="0 4.448 8.8959999 14.672 16.896 21.784 25.784"
                                 y="0"
                                 id="tspan176"
                                 style="font-size:8px;font-variant:normal;font-weight:normal;writing-mode:lr-tb;fill:#231f20;fill-opacity:1;fill-rule:nonzero;stroke:none;font-family:ArialMT;-inkscape-font-specification:ArialMT">Low Fst</tspan></text>
<g
                               transform="scale(1,-1)"
                               id="g178"><path
                                 d="m 313.37598,-18.57715 c 0,0 -27.5,0 -27.5,0 0,0 0,-4.5 0,-4.5 0,0 27.5,0 27.5,0 0,0 0,4.5 0,4.5 z"
                                 inkscape:connector-curvature="0"
                                 id="path180"
                                 style="fill:#f68712;fill-opacity:1;fill-rule:nonzero;stroke:none" /><g
                                 transform="scale(1,-1)"
                                 id="g182"><text
                                   transform="matrix(1,0,0,-1,283.96045,5.49414)"
                                   id="text184"><tspan
                                   x="0 5.776 7.552 12 16.448 18.672001 23.559999 27.559999"
                                   y="0"
                                   id="tspan186"
                                   style="font-size:8px;font-variant:normal;font-weight:normal;writing-mode:lr-tb;fill:#231f20;fill-opacity:1;fill-rule:nonzero;stroke:none;font-family:ArialMT;-inkscape-font-specification:ArialMT">High Fst</tspan></text>
<g
                                   transform="scale(1,-1)"
                                   id="g188"><path
                                   d="m 274.87598,-19.82715 c 0,0 -41.5,0 -41.5,0 0,0 0,-4.5 0,-4.5 0,0 41.5,0 41.5,0 0,0 0,4.5 0,4.5 z"
                                   inkscape:connector-curvature="0"
                                   id="path190"
                                   style="fill:#f68712;fill-opacity:1;fill-rule:nonzero;stroke:none" /><path
                                   d="m 313.37598,-18.57715 c 0,0 -23.5,0 -23.5,0 0,0 0,-4.5 0,-4.5 0,0 23.5,0 23.5,0 0,0 0,4.5 0,4.5 z"
                                   inkscape:connector-curvature="0"
                                   id="path192"
                                   style="fill:#00adef;fill-opacity:1;fill-rule:nonzero;stroke:none" /><path
                                   d="m 202.20898,-236.07666 c 0,0 0,36.25 0,36.25"
                                   inkscape:connector-curvature="0"
                                   id="path194"
                                   style="fill:none;stroke:#231f20;stroke-width:0.5;stroke-linecap:butt;stroke-linejoin:miter;stroke-miterlimit:4;stroke-opacity:1;stroke-dasharray:none" /><path
                                   d="m 298.95996,-236.07666 c 0,0 0,36.25 0,36.25"
                                   inkscape:connector-curvature="0"
                                   id="path196"
                                   style="fill:none;stroke:#231f20;stroke-width:0.5;stroke-linecap:butt;stroke-linejoin:miter;stroke-miterlimit:4;stroke-opacity:1;stroke-dasharray:none" /><path
                                   d="m 202.20898,-200.07666 c 0,0 -10.5,26.75 -10.5,26.75"
                                   inkscape:connector-curvature="0"
                                   id="path198"
                                   style="fill:none;stroke:#231f20;stroke-width:0.5;stroke-linecap:butt;stroke-linejoin:miter;stroke-miterlimit:4;stroke-opacity:1;stroke-dasharray:none" /><path
                                   d="m 298.95996,-200.07666 c 0,0 10.5,26.75 10.5,26.75"
                                   inkscape:connector-curvature="0"
                                   id="path200"
                                   style="fill:none;stroke:#231f20;stroke-width:0.5;stroke-linecap:butt;stroke-linejoin:miter;stroke-miterlimit:4;stroke-opacity:1;stroke-dasharray:none" /><path
                                   d="m 230.45898,-200.07666 c 0,0 -10.5,26.75 -10.5,26.75"
                                   inkscape:connector-curvature="0"
                                   id="path202"
                                   style="fill:none;stroke:#231f20;stroke-width:0.5;stroke-linecap:butt;stroke-linejoin:miter;stroke-miterlimit:4;stroke-opacity:1;stroke-dasharray:none" /><path
                                   d="m 271.95996,-200.07666 c 0,0 10.5,26.75 10.5,26.75"
                                   inkscape:connector-curvature="0"
                                   id="path204"
                                   style="fill:none;stroke:#231f20;stroke-width:0.5;stroke-linecap:butt;stroke-linejoin:miter;stroke-miterlimit:4;stroke-opacity:1;stroke-dasharray:none" /><path
                                   d="m 271.95996,-200.07666 c 0,0 0,26.75 0,26.75"
                                   inkscape:connector-curvature="0"
                                   id="path206"
                                   style="fill:none;stroke:#231f20;stroke-width:0.5;stroke-linecap:butt;stroke-linejoin:miter;stroke-miterlimit:4;stroke-opacity:1;stroke-dasharray:none" /><path
                                   d="m 230.45898,-200.07666 c 0,0 0,26.75 0,26.75"
                                   inkscape:connector-curvature="0"
                                   id="path208"
                                   style="fill:none;stroke:#231f20;stroke-width:0.5;stroke-linecap:butt;stroke-linejoin:miter;stroke-miterlimit:4;stroke-opacity:1;stroke-dasharray:none" /><path
                                   d="m 266.70898,-216.82666 c 0,0 -36.75,0 -36.75,0 0,0 0,-9.25 0,-9.25 0,0 36.75,0 36.75,0 0,0 0,9.25 0,9.25 z"
                                   inkscape:connector-curvature="0"
                                   id="path210"
                                   style="fill:none;stroke:#231f20;stroke-width:0.5;stroke-linecap:butt;stroke-linejoin:miter;stroke-miterlimit:4;stroke-opacity:1;stroke-dasharray:none" /><g
                                   transform="scale(1,-1)"
                                   id="g212"><text
                                   transform="matrix(1,0,0,-1,244.7085,218.57617)"
                                   id="text214"><tspan
                                   x="0"
                                   y="0"
                                   id="tspan216"
                                   style="font-size:8px;font-variant:normal;font-weight:normal;writing-mode:lr-tb;fill:#ed1c24;fill-opacity:1;fill-rule:nonzero;stroke:none;font-family:ArialMT;-inkscape-font-specification:ArialMT">C</tspan></text>
<g
                                   transform="scale(1,-1)"
                                   id="g218"><path
                                   d="m 193.45898,-194.32666 c 0,0 -36.75,0 -36.75,0 0,0 0,-9.25 0,-9.25 0,0 36.75,0 36.75,0 0,0 0,9.25 0,9.25 z"
                                   inkscape:connector-curvature="0"
                                   id="path220"
                                   style="fill:none;stroke:#231f20;stroke-width:0.5;stroke-linecap:butt;stroke-linejoin:miter;stroke-miterlimit:4;stroke-opacity:1;stroke-dasharray:none" /><g
                                   transform="scale(1,-1)"
                                   id="g222"><text
                                   transform="matrix(1,0,0,-1,171.4585,196.07617)"
                                   id="text224"><tspan
                                   x="0"
                                   y="0"
                                   id="tspan226"
                                   style="font-size:8px;font-variant:normal;font-weight:normal;writing-mode:lr-tb;fill:#2e3192;fill-opacity:1;fill-rule:nonzero;stroke:none;font-family:ArialMT;-inkscape-font-specification:ArialMT">A</tspan></text>
<g
                                   transform="scale(1,-1)"
                                   id="g228"><path
                                   d="m 193.45898,-194.32666 c 0,0 4.25,16.5 4.25,16.5"
                                   inkscape:connector-curvature="0"
                                   id="path230"
                                   style="fill:none;stroke:#231f20;stroke-width:0.5;stroke-linecap:butt;stroke-linejoin:miter;stroke-miterlimit:4;stroke-opacity:1;stroke-dasharray:2, 2;stroke-dashoffset:0" /><path
                                   d="m 309.08496,-203.95166 c 0,0 -5.375,26.875 -5.375,26.875"
                                   inkscape:connector-curvature="0"
                                   id="path232"
                                   style="fill:none;stroke:#231f20;stroke-width:0.5;stroke-linecap:butt;stroke-linejoin:miter;stroke-miterlimit:4;stroke-opacity:1;stroke-dasharray:2, 2;stroke-dashoffset:0" /><path
                                   d="m 345.45996,-204.07666 c 0,0 -36.75,0 -36.75,0 0,0 0,-9.25 0,-9.25 0,0 36.75,0 36.75,0 0,0 0,9.25 0,9.25 z"
                                   inkscape:connector-curvature="0"
                                   id="path234"
                                   style="fill:none;stroke:#231f20;stroke-width:0.5;stroke-linecap:butt;stroke-linejoin:miter;stroke-miterlimit:4;stroke-opacity:1;stroke-dasharray:none" /><g
                                   transform="scale(1,-1)"
                                   id="g236"><text
                                   transform="matrix(1,0,0,-1,323.9585,204.82617)"
                                   id="text238"><tspan
                                   x="0"
                                   y="0"
                                   id="tspan240"
                                   style="font-size:8px;font-variant:normal;font-weight:normal;writing-mode:lr-tb;fill:#00adef;fill-opacity:1;fill-rule:nonzero;stroke:none;font-family:ArialMT;-inkscape-font-specification:ArialMT">A</tspan></text>
<g
                                   transform="scale(1,-1)"
                                   id="g242"><path
                                   d="m 198.50098,-190.78564 c 0,0 8.5,8 8.5,8"
                                   inkscape:connector-curvature="0"
                                   id="path244"
                                   style="fill:none;stroke:#231f20;stroke-width:0.5;stroke-linecap:butt;stroke-linejoin:miter;stroke-miterlimit:4;stroke-opacity:1;stroke-dasharray:none" /><path
                                   d="m 207.00098,-182.78564 c 0,0 7.5,9.33398 7.5,9.33398"
                                   inkscape:connector-curvature="0"
                                   id="path246"
                                   style="fill:none;stroke:#231f20;stroke-width:0.5;stroke-linecap:butt;stroke-linejoin:miter;stroke-miterlimit:4;stroke-opacity:1;stroke-dasharray:none" /><path
                                   d="m 300.00098,-197.53467 c 0,0 -9,8.25 -9,8.25"
                                   inkscape:connector-curvature="0"
                                   id="path248"
                                   style="fill:none;stroke:#231f20;stroke-width:0.5;stroke-linecap:butt;stroke-linejoin:miter;stroke-miterlimit:4;stroke-opacity:1;stroke-dasharray:none" /><path
                                   d="m 291.00098,-189.28467 c 0,0 -0.25,8.75 -0.25,8.75"
                                   inkscape:connector-curvature="0"
                                   id="path250"
                                   style="fill:none;stroke:#231f20;stroke-width:0.5;stroke-linecap:butt;stroke-linejoin:miter;stroke-miterlimit:4;stroke-opacity:1;stroke-dasharray:none" /><g
                                   transform="scale(1,-1)"
                                   id="g252"><text
                                   transform="matrix(1,0,0,-1,233.33398,244.4502)"
                                   id="text254"><tspan
                                   x="0 5.336 9.7840004 12.008 14.232 18.68 21.344 25.792 27.576"
                                   y="0"
                                   id="tspan256"
                                   style="font-size:8px;font-variant:normal;font-weight:normal;writing-mode:lr-tb;fill:#231f20;fill-opacity:1;fill-rule:nonzero;stroke:none;font-family:ArialMT;-inkscape-font-specification:ArialMT">Pattern A</tspan></text>
<g
                                   transform="scale(1,-1)"
                                   id="g258"><path
                                   d="m 40.87646,-42.32715 c 0,0 -21.58398,0 -21.58398,0 0,0 0,-4.5 0,-4.5 0,0 21.58398,0 21.58398,0 0,0 0,4.5 0,4.5 z"
                                   inkscape:connector-curvature="0"
                                   id="path260"
                                   style="fill:#00adef;fill-opacity:1;fill-rule:nonzero;stroke:none" /><path
                                   d="m 23.37646,-116.32715 c 0,0 0,36.25 0,36.25"
                                   inkscape:connector-curvature="0"
                                   id="path262"
                                   style="fill:none;stroke:#231f20;stroke-width:0.5;stroke-linecap:butt;stroke-linejoin:miter;stroke-miterlimit:4;stroke-opacity:1;stroke-dasharray:none" /><path
                                   d="m 120.12451,-116.32715 c 0,0 0,36.25 0,36.25"
                                   inkscape:connector-curvature="0"
                                   id="path264"
                                   style="fill:none;stroke:#231f20;stroke-width:0.5;stroke-linecap:butt;stroke-linejoin:miter;stroke-miterlimit:4;stroke-opacity:1;stroke-dasharray:none" /><path
                                   d="m 23.37646,-80.32715 c 0,0 -10.5,26.75 -10.5,26.75"
                                   inkscape:connector-curvature="0"
                                   id="path266"
                                   style="fill:none;stroke:#231f20;stroke-width:0.5;stroke-linecap:butt;stroke-linejoin:miter;stroke-miterlimit:4;stroke-opacity:1;stroke-dasharray:none" /><path
                                   d="m 120.12451,-80.32715 c 0,0 10.5,26.75 10.5,26.75"
                                   inkscape:connector-curvature="0"
                                   id="path268"
                                   style="fill:none;stroke:#231f20;stroke-width:0.5;stroke-linecap:butt;stroke-linejoin:miter;stroke-miterlimit:4;stroke-opacity:1;stroke-dasharray:none" /><path
                                   d="m 51.62646,-80.32715 c 0,0 -10.5,26.75 -10.5,26.75"
                                   inkscape:connector-curvature="0"
                                   id="path270"
                                   style="fill:none;stroke:#231f20;stroke-width:0.5;stroke-linecap:butt;stroke-linejoin:miter;stroke-miterlimit:4;stroke-opacity:1;stroke-dasharray:none" /><path
                                   d="m 93.12646,-80.32715 c 0,0 10.5,26.75 10.5,26.75"
                                   inkscape:connector-curvature="0"
                                   id="path272"
                                   style="fill:none;stroke:#231f20;stroke-width:0.5;stroke-linecap:butt;stroke-linejoin:miter;stroke-miterlimit:4;stroke-opacity:1;stroke-dasharray:none" /><path
                                   d="m 93.12646,-80.32715 c 0,0 0,26.75 0,26.75"
                                   inkscape:connector-curvature="0"
                                   id="path274"
                                   style="fill:none;stroke:#231f20;stroke-width:0.5;stroke-linecap:butt;stroke-linejoin:miter;stroke-miterlimit:4;stroke-opacity:1;stroke-dasharray:none" /><path
                                   d="m 51.62646,-80.32715 c 0,0 0,26.75 0,26.75"
                                   inkscape:connector-curvature="0"
                                   id="path276"
                                   style="fill:none;stroke:#231f20;stroke-width:0.5;stroke-linecap:butt;stroke-linejoin:miter;stroke-miterlimit:4;stroke-opacity:1;stroke-dasharray:none" /><path
                                   d="m 65.7085,-105.90918 c 0,0 -36.75,0 -36.75,0 0,0 0,-9.25 0,-9.25 0,0 36.75,0 36.75,0 0,0 0,9.25 0,9.25 z"
                                   inkscape:connector-curvature="0"
                                   id="path278"
                                   style="fill:none;stroke:#231f20;stroke-width:0.5;stroke-linecap:butt;stroke-linejoin:miter;stroke-miterlimit:4;stroke-opacity:1;stroke-dasharray:none" /><g
                                   transform="scale(1,-1)"
                                   id="g280"><text
                                   transform="matrix(1,0,0,-1,43.7085,107.65918)"
                                   id="text282"><tspan
                                   x="0"
                                   y="0"
                                   id="tspan284"
                                   style="font-size:8px;font-variant:normal;font-weight:normal;writing-mode:lr-tb;fill:#ed1c24;fill-opacity:1;fill-rule:nonzero;stroke:none;font-family:ArialMT;-inkscape-font-specification:ArialMT">A</tspan></text>
<g
                                   transform="scale(1,-1)"
                                   id="g286"><path
                                   d="m 93.12646,-42.32715 c 0,0 -41.5,0 -41.5,0 0,0 0,-4.5 0,-4.5 0,0 41.5,0 41.5,0 0,0 0,4.5 0,4.5 z"
                                   inkscape:connector-curvature="0"
                                   id="path288"
                                   style="fill:#ed1c24;fill-opacity:1;fill-rule:nonzero;stroke:none" /><path
                                   d="m 131.12451,-42.57715 c 0,0 -27.49805,0 -27.49805,0 0,0 0,-4.5 0,-4.5 0,0 27.49805,0 27.49805,0 0,0 0,4.5 0,4.5 z"
                                   inkscape:connector-curvature="0"
                                   id="path290"
                                   style="fill:#ed1c24;fill-opacity:1;fill-rule:nonzero;stroke:none" /><path
                                   d="m 19.54248,-42.32715 c 0,0 -6.83203,0 -6.83203,0 0,0 0,-4.5 0,-4.5 0,0 6.83203,0 6.83203,0 0,0 0,4.5 0,4.5 z"
                                   inkscape:connector-curvature="0"
                                   id="path292"
                                   style="fill:#ed1c24;fill-opacity:1;fill-rule:nonzero;stroke:none" /><g
                                   transform="scale(1,-1)"
                                   id="g294"><text
                                   transform="matrix(1,0,0,-1,13.37646,29.49316)"
                                   id="text296"><tspan
                                   x="0 5.776 7.552 12 16.448 18.672001 23.559999 27.559999"
                                   y="0"
                                   id="tspan298"
                                   style="font-size:8px;font-variant:normal;font-weight:normal;writing-mode:lr-tb;fill:#231f20;fill-opacity:1;fill-rule:nonzero;stroke:none;font-family:ArialMT;-inkscape-font-specification:ArialMT">High Fst</tspan></text>
<text
                                   transform="matrix(1,0,0,-1,102.21045,29.49414)"
                                   id="text300"><tspan
                                   x="0 5.776 7.552 12 16.448 18.672001 23.559999 27.559999"
                                   y="0"
                                   id="tspan302"
                                   style="font-size:8px;font-variant:normal;font-weight:normal;writing-mode:lr-tb;fill:#231f20;fill-opacity:1;fill-rule:nonzero;stroke:none;font-family:ArialMT;-inkscape-font-specification:ArialMT">High Fst</tspan></text>
<g
                                   transform="scale(1,-1)"
                                   id="g304"><path
                                   d="m 111.9585,-93.99316 c 0,0 -36.75,0 -36.75,0 0,0 0,-9.25 0,-9.25 0,0 36.75,0 36.75,0 0,0 0,9.25 0,9.25 z"
                                   inkscape:connector-curvature="0"
                                   id="path306"
                                   style="fill:none;stroke:#231f20;stroke-width:0.5;stroke-linecap:butt;stroke-linejoin:miter;stroke-miterlimit:4;stroke-opacity:1;stroke-dasharray:none" /><g
                                   transform="scale(1,-1)"
                                   id="g308"><text
                                   transform="matrix(1,0,0,-1,90.4585,94.74219)"
                                   id="text310"><tspan
                                   x="0"
                                   y="0"
                                   id="tspan312"
                                   style="font-size:8px;font-variant:normal;font-weight:normal;writing-mode:lr-tb;fill:#00adef;fill-opacity:1;fill-rule:nonzero;stroke:none;font-family:ArialMT;-inkscape-font-specification:ArialMT">T</tspan></text>
<g
                                   transform="scale(1,-1)"
                                   id="g314"><path
                                   d="m 131.12451,-42.57715 c 0,0 -23.5,0 -23.5,0 0,0 0,-4.5 0,-4.5 0,0 23.5,0 23.5,0 0,0 0,4.5 0,4.5 z"
                                   inkscape:connector-curvature="0"
                                   id="path316"
                                   style="fill:#00adef;fill-opacity:1;fill-rule:nonzero;stroke:none" /><path
                                   d="m 114.00146,-79.03418 c 0,0 -4.16796,10.66602 -4.16796,10.66602"
                                   inkscape:connector-curvature="0"
                                   id="path318"
                                   style="fill:none;stroke:#231f20;stroke-width:0.5;stroke-linecap:butt;stroke-linejoin:miter;stroke-miterlimit:4;stroke-opacity:1;stroke-dasharray:none" /><path
                                   d="m 109.8335,-68.36816 c 0,0 -3.66602,14.5 -3.66602,14.5"
                                   inkscape:connector-curvature="0"
                                   id="path320"
                                   style="fill:none;stroke:#231f20;stroke-width:0.5;stroke-linecap:butt;stroke-linejoin:miter;stroke-miterlimit:4;stroke-opacity:1;stroke-dasharray:none" /><path
                                   d="m 82.00146,-79.86816 c 0,0 2.16602,7.5 2.16602,7.5"
                                   inkscape:connector-curvature="0"
                                   id="path322"
                                   style="fill:none;stroke:#231f20;stroke-width:0.5;stroke-linecap:butt;stroke-linejoin:miter;stroke-miterlimit:4;stroke-opacity:1;stroke-dasharray:none" /><path
                                   d="m 84.16748,-72.36816 c 0,0 -2.33203,6.66796 -2.33203,6.66796"
                                   inkscape:connector-curvature="0"
                                   id="path324"
                                   style="fill:none;stroke:#231f20;stroke-width:0.5;stroke-linecap:butt;stroke-linejoin:miter;stroke-miterlimit:4;stroke-opacity:1;stroke-dasharray:none" /><path
                                   d="m 81.83545,-65.7002 c 0,0 1.16601,12 1.16601,12"
                                   inkscape:connector-curvature="0"
                                   id="path326"
                                   style="fill:none;stroke:#231f20;stroke-width:0.5;stroke-linecap:butt;stroke-linejoin:miter;stroke-miterlimit:4;stroke-opacity:1;stroke-dasharray:none" /><path
                                   d="m 93.12646,-42.32715 c 0,0 -9.83398,0 -9.83398,0 0,0 0,-4.5 0,-4.5 0,0 9.83398,0 9.83398,0 0,0 0,4.5 0,4.5 z"
                                   inkscape:connector-curvature="0"
                                   id="path328"
                                   style="fill:#00adef;fill-opacity:1;fill-rule:nonzero;stroke:none" /><path
                                   d="m 36.29443,-42.32715 c 0,0 -23.58398,0 -23.58398,0 0,0 0,-4.5 0,-4.5 0,0 23.58398,0 23.58398,0 0,0 0,4.5 0,4.5 z"
                                   inkscape:connector-curvature="0"
                                   id="path330"
                                   style="fill:#00adef;fill-opacity:1;fill-rule:nonzero;stroke:none" /><path
                                   d="m 40.87646,-42.32715 c 0,0 -4.83203,0 -4.83203,0 0,0 0,-4.5 0,-4.5 0,0 4.83203,0 4.83203,0 0,0 0,4.5 0,4.5 z"
                                   inkscape:connector-curvature="0"
                                   id="path332"
                                   style="fill:#ed1c24;fill-opacity:1;fill-rule:nonzero;stroke:none" /><path
                                   d="m 27.50146,-79.7002 c 0,0 2.66602,14.83204 2.66602,14.83204"
                                   inkscape:connector-curvature="0"
                                   id="path334"
                                   style="fill:none;stroke:#231f20;stroke-width:0.5;stroke-linecap:butt;stroke-linejoin:miter;stroke-miterlimit:4;stroke-opacity:1;stroke-dasharray:none" /><path
                                   d="m 30.16748,-64.86816 c 0,0 5.83398,11.16796 5.83398,11.16796"
                                   inkscape:connector-curvature="0"
                                   id="path336"
                                   style="fill:none;stroke:#231f20;stroke-width:0.5;stroke-linecap:butt;stroke-linejoin:miter;stroke-miterlimit:4;stroke-opacity:1;stroke-dasharray:none" /><g
                                   transform="scale(1,-1)"
                                   id="g338"><text
                                   transform="matrix(1,0,0,-1,54.66748,128.53516)"
                                   id="text340"><tspan
                                   x="0 5.336 9.7840004 12.008 14.232 18.68 21.344 25.792 28.016001"
                                   y="0"
                                   id="tspan342"
                                   style="font-size:8px;font-variant:normal;font-weight:normal;writing-mode:lr-tb;fill:#231f20;fill-opacity:1;fill-rule:nonzero;stroke:none;font-family:ArialMT;-inkscape-font-specification:ArialMT">Pattern B</tspan></text>
<text
                                   transform="matrix(1,0,0,-1,234.99902,122.11719)"
                                   id="text344"><tspan
                                   x="0 5.336 9.7840004 12.008 14.232 18.68 21.344 25.792 28.016001"
                                   y="0"
                                   id="tspan346"
                                   style="font-size:8px;font-variant:normal;font-weight:normal;writing-mode:lr-tb;fill:#231f20;fill-opacity:1;fill-rule:nonzero;stroke:none;font-family:ArialMT;-inkscape-font-specification:ArialMT">Pattern C</tspan></text>
<g
                                   transform="scale(1,-1)"
                                   id="g348"><path
                                   d="m 207.66699,-62.45215 c 0,0 5.12696,0.91602 5.12696,0.91602"
                                   inkscape:connector-curvature="0"
                                   id="path350"
                                   style="fill:none;stroke:#231f20;stroke-width:0.5;stroke-linecap:butt;stroke-linejoin:miter;stroke-miterlimit:4;stroke-opacity:1;stroke-dasharray:none" /></g></g></g></g></g></g></g></g></g></g></g></g></g></g></g></g></g></g></g></g></g></g></g></g></g></g></g></g></g></g></g></g></svg>