<?xml version="1.0" encoding="UTF-8" standalone="no"?>
<!-- Created with Inkscape (http://www.inkscape.org/) -->

<svg
   xmlns:dc="http://purl.org/dc/elements/1.1/"
   xmlns:cc="http://creativecommons.org/ns#"
   xmlns:rdf="http://www.w3.org/1999/02/22-rdf-syntax-ns#"
   xmlns:svg="http://www.w3.org/2000/svg"
   xmlns="http://www.w3.org/2000/svg"
   xmlns:inkscape="http://www.inkscape.org/namespaces/inkscape"
   version="1.1"
   width="354.33099"
   height="258.66171"
   id="svg2"
   xml:space="preserve"><metadata
     id="metadata8"><rdf:RDF><cc:Work
         rdf:about=""><dc:format>image/svg+xml</dc:format><dc:type
           rdf:resource="http://purl.org/dc/dcmitype/StillImage" /></cc:Work></rdf:RDF></metadata><defs
     id="defs6" /><g
     transform="matrix(1.25,0,0,-1.25,0,258.66172)"
     id="g10"><g
       transform="scale(1,-1)"
       id="g12"><path
         d="m 24.74609,-187.38818 c 0,0 0,36.25 0,36.25"
         inkscape:connector-curvature="0"
         id="path14"
         style="fill:none;stroke:#231f20;stroke-width:0.5;stroke-linecap:butt;stroke-linejoin:miter;stroke-miterlimit:4;stroke-opacity:1;stroke-dasharray:none" /><path
         d="m 121.49609,-187.38818 c 0,0 0,36.25 0,36.25"
         inkscape:connector-curvature="0"
         id="path16"
         style="fill:none;stroke:#231f20;stroke-width:0.5;stroke-linecap:butt;stroke-linejoin:miter;stroke-miterlimit:4;stroke-opacity:1;stroke-dasharray:none" /><path
         d="m 24.74609,-151.38818 c 0,0 -10.5,26.75 -10.5,26.75"
         inkscape:connector-curvature="0"
         id="path18"
         style="fill:none;stroke:#231f20;stroke-width:0.5;stroke-linecap:butt;stroke-linejoin:miter;stroke-miterlimit:4;stroke-opacity:1;stroke-dasharray:none" /><path
         d="m 121.49609,-151.38818 c 0,0 10.5,26.75 10.5,26.75"
         inkscape:connector-curvature="0"
         id="path20"
         style="fill:none;stroke:#231f20;stroke-width:0.5;stroke-linecap:butt;stroke-linejoin:miter;stroke-miterlimit:4;stroke-opacity:1;stroke-dasharray:none" /><path
         d="m 52.99609,-151.38818 c 0,0 -10.5,26.75 -10.5,26.75"
         inkscape:connector-curvature="0"
         id="path22"
         style="fill:none;stroke:#231f20;stroke-width:0.5;stroke-linecap:butt;stroke-linejoin:miter;stroke-miterlimit:4;stroke-opacity:1;stroke-dasharray:none" /><path
         d="m 94.49609,-151.38818 c 0,0 10.5,26.75 10.5,26.75"
         inkscape:connector-curvature="0"
         id="path24"
         style="fill:none;stroke:#231f20;stroke-width:0.5;stroke-linecap:butt;stroke-linejoin:miter;stroke-miterlimit:4;stroke-opacity:1;stroke-dasharray:none" /><path
         d="m 94.49609,-151.38818 c 0,0 0,26.75 0,26.75"
         inkscape:connector-curvature="0"
         id="path26"
         style="fill:none;stroke:#231f20;stroke-width:0.5;stroke-linecap:butt;stroke-linejoin:miter;stroke-miterlimit:4;stroke-opacity:1;stroke-dasharray:none" /><path
         d="m 52.99609,-151.38818 c 0,0 0,26.75 0,26.75"
         inkscape:connector-curvature="0"
         id="path28"
         style="fill:none;stroke:#231f20;stroke-width:0.5;stroke-linecap:butt;stroke-linejoin:miter;stroke-miterlimit:4;stroke-opacity:1;stroke-dasharray:none" /><g
         transform="scale(1,-1)"
         id="g30"><text
           transform="matrix(1,0,0,-1,11.02393,113.67871)"
           id="text32"><tspan
             x="0 5.776 10.224 12.888 14.664 18.664 23.112 27.559999"
             y="0"
             id="tspan34"
             style="font-size:8px;font-variant:normal;font-weight:normal;writing-mode:lr-tb;fill:#231f20;fill-opacity:1;fill-rule:nonzero;stroke:none;font-family:ArialMT;-inkscape-font-specification:ArialMT">Derived </tspan></text>
<text
           transform="matrix(1,0,0,-1,4.12158,105.67871)"
           id="text36"><tspan
             x="0 4.448 8.8959999 13.344 17.792 19.568001 24.016001 26.24 28.016001 32.464001 36.911999 39.136002"
             y="0"
             id="tspan38"
             style="font-size:8px;font-variant:normal;font-weight:normal;writing-mode:lr-tb;fill:#231f20;fill-opacity:1;fill-rule:nonzero;stroke:none;font-family:ArialMT;-inkscape-font-specification:ArialMT">population 1</tspan></text>
<text
           transform="matrix(1,0,0,-1,107.77393,113.67871)"
           id="text40"><tspan
             x="0 5.776 10.224 12.888 14.664 18.664 23.112 27.559999"
             y="0"
             id="tspan42"
             style="font-size:8px;font-variant:normal;font-weight:normal;writing-mode:lr-tb;fill:#231f20;fill-opacity:1;fill-rule:nonzero;stroke:none;font-family:ArialMT;-inkscape-font-specification:ArialMT">Derived </tspan></text>
<text
           transform="matrix(1,0,0,-1,100.87158,105.67871)"
           id="text44"><tspan
             x="0 4.448 8.8959999 13.344 17.792 19.568001 24.016001 26.24 28.016001 32.464001 36.911999 39.136002"
             y="0"
             id="tspan46"
             style="font-size:8px;font-variant:normal;font-weight:normal;writing-mode:lr-tb;fill:#231f20;fill-opacity:1;fill-rule:nonzero;stroke:none;font-family:ArialMT;-inkscape-font-specification:ArialMT">population 2</tspan></text>
<text
           transform="matrix(1,0,0,-1,58.65869,113.67871)"
           id="text48"><tspan
             x="0 5.336 9.7840004 12.448 16.896 21.344 23.568001 28.016001 29.792"
             y="0"
             id="tspan50"
             style="font-size:8px;font-variant:normal;font-weight:normal;writing-mode:lr-tb;fill:#231f20;fill-opacity:1;fill-rule:nonzero;stroke:none;font-family:ArialMT;-inkscape-font-specification:ArialMT">Parental </tspan></text>
<text
           transform="matrix(1,0,0,-1,56.20752,105.67871)"
           id="text52"><tspan
             x="0 4.448 8.8959999 13.344 17.792 19.568001 24.016001 26.24 28.016001 32.464001"
             y="0"
             id="tspan54"
             style="font-size:8px;font-variant:normal;font-weight:normal;writing-mode:lr-tb;fill:#231f20;fill-opacity:1;fill-rule:nonzero;stroke:none;font-family:ArialMT;-inkscape-font-specification:ArialMT">population</tspan></text>
<g
           transform="scale(1,-1)"
           id="g56"><path
             d="m 171.12598,-67.63867 c 0,0 0,36.25 0,36.25"
             inkscape:connector-curvature="0"
             id="path58"
             style="fill:none;stroke:#231f20;stroke-width:0.5;stroke-linecap:butt;stroke-linejoin:miter;stroke-miterlimit:4;stroke-opacity:1;stroke-dasharray:none" /><path
             d="m 267.87598,-67.63867 c 0,0 0,36.25 0,36.25"
             inkscape:connector-curvature="0"
             id="path60"
             style="fill:none;stroke:#231f20;stroke-width:0.5;stroke-linecap:butt;stroke-linejoin:miter;stroke-miterlimit:4;stroke-opacity:1;stroke-dasharray:none" /><path
             d="m 171.12598,-31.63867 c 0,0 -10.5,26.75 -10.5,26.75"
             inkscape:connector-curvature="0"
             id="path62"
             style="fill:none;stroke:#231f20;stroke-width:0.5;stroke-linecap:butt;stroke-linejoin:miter;stroke-miterlimit:4;stroke-opacity:1;stroke-dasharray:none" /><path
             d="m 267.87598,-31.63867 c 0,0 10.5,26.75 10.5,26.75"
             inkscape:connector-curvature="0"
             id="path64"
             style="fill:none;stroke:#231f20;stroke-width:0.5;stroke-linecap:butt;stroke-linejoin:miter;stroke-miterlimit:4;stroke-opacity:1;stroke-dasharray:none" /><path
             d="m 199.37598,-31.63867 c 0,0 -10.5,26.75 -10.5,26.75"
             inkscape:connector-curvature="0"
             id="path66"
             style="fill:none;stroke:#231f20;stroke-width:0.5;stroke-linecap:butt;stroke-linejoin:miter;stroke-miterlimit:4;stroke-opacity:1;stroke-dasharray:none" /><path
             d="m 240.87598,-31.63867 c 0,0 10.5,26.75 10.5,26.75"
             inkscape:connector-curvature="0"
             id="path68"
             style="fill:none;stroke:#231f20;stroke-width:0.5;stroke-linecap:butt;stroke-linejoin:miter;stroke-miterlimit:4;stroke-opacity:1;stroke-dasharray:none" /><path
             d="m 240.87598,-31.63867 c 0,0 0,26.75 0,26.75"
             inkscape:connector-curvature="0"
             id="path70"
             style="fill:none;stroke:#231f20;stroke-width:0.5;stroke-linecap:butt;stroke-linejoin:miter;stroke-miterlimit:4;stroke-opacity:1;stroke-dasharray:none" /><path
             d="m 199.37598,-31.63867 c 0,0 0,26.75 0,26.75"
             inkscape:connector-curvature="0"
             id="path72"
             style="fill:none;stroke:#231f20;stroke-width:0.5;stroke-linecap:butt;stroke-linejoin:miter;stroke-miterlimit:4;stroke-opacity:1;stroke-dasharray:none" /><path
             d="m 168.20898,-187.38818 c 0,0 0,36.25 0,36.25"
             inkscape:connector-curvature="0"
             id="path74"
             style="fill:none;stroke:#231f20;stroke-width:0.5;stroke-linecap:butt;stroke-linejoin:miter;stroke-miterlimit:4;stroke-opacity:1;stroke-dasharray:none" /><path
             d="m 264.95996,-187.38818 c 0,0 0,36.25 0,36.25"
             inkscape:connector-curvature="0"
             id="path76"
             style="fill:none;stroke:#231f20;stroke-width:0.5;stroke-linecap:butt;stroke-linejoin:miter;stroke-miterlimit:4;stroke-opacity:1;stroke-dasharray:none" /><path
             d="m 168.20898,-151.38818 c 0,0 -10.5,26.75 -10.5,26.75"
             inkscape:connector-curvature="0"
             id="path78"
             style="fill:none;stroke:#231f20;stroke-width:0.5;stroke-linecap:butt;stroke-linejoin:miter;stroke-miterlimit:4;stroke-opacity:1;stroke-dasharray:none" /><path
             d="m 264.95996,-151.38818 c 0,0 10.5,26.75 10.5,26.75"
             inkscape:connector-curvature="0"
             id="path80"
             style="fill:none;stroke:#231f20;stroke-width:0.5;stroke-linecap:butt;stroke-linejoin:miter;stroke-miterlimit:4;stroke-opacity:1;stroke-dasharray:none" /><path
             d="m 196.45898,-151.38818 c 0,0 -10.5,26.75 -10.5,26.75"
             inkscape:connector-curvature="0"
             id="path82"
             style="fill:none;stroke:#231f20;stroke-width:0.5;stroke-linecap:butt;stroke-linejoin:miter;stroke-miterlimit:4;stroke-opacity:1;stroke-dasharray:none" /><path
             d="m 237.95996,-151.38818 c 0,0 10.5,26.75 10.5,26.75"
             inkscape:connector-curvature="0"
             id="path84"
             style="fill:none;stroke:#231f20;stroke-width:0.5;stroke-linecap:butt;stroke-linejoin:miter;stroke-miterlimit:4;stroke-opacity:1;stroke-dasharray:none" /><path
             d="m 237.95996,-151.38818 c 0,0 0,26.75 0,26.75"
             inkscape:connector-curvature="0"
             id="path86"
             style="fill:none;stroke:#231f20;stroke-width:0.5;stroke-linecap:butt;stroke-linejoin:miter;stroke-miterlimit:4;stroke-opacity:1;stroke-dasharray:none" /><path
             d="m 196.45898,-151.38818 c 0,0 0,26.75 0,26.75"
             inkscape:connector-curvature="0"
             id="path88"
             style="fill:none;stroke:#231f20;stroke-width:0.5;stroke-linecap:butt;stroke-linejoin:miter;stroke-miterlimit:4;stroke-opacity:1;stroke-dasharray:none" /><path
             d="m 227.02832,-168.13818 c 0,0 -23,0 -23,0 0,0 0,-9.25 0,-9.25 0,0 23,0 23,0 0,0 0,9.25 0,9.25 z"
             inkscape:connector-curvature="0"
             id="path90"
             style="fill:none;stroke:#231f20;stroke-width:0.5;stroke-linecap:butt;stroke-linejoin:miter;stroke-miterlimit:4;stroke-opacity:1;stroke-dasharray:none" /><g
             transform="scale(1,-1)"
             id="g92"><text
               transform="matrix(1,0,0,-1,212.63818,169.8877)"
               id="text94"><tspan
                 x="0"
                 y="0"
                 id="tspan96"
                 style="font-size:8px;font-variant:normal;font-weight:normal;writing-mode:lr-tb;fill:#333898;fill-opacity:1;fill-rule:nonzero;stroke:none;font-family:ArialMT;-inkscape-font-specification:ArialMT">C</tspan><tspan
                 x="-13.3052 -7.9692001 -3.5211999 -1.2972 0.92680001 5.3748002 8.0388002 12.4868 14.2708"
                 y="-25.874001"
                 id="tspan98"
                 style="font-size:8px;font-variant:normal;font-weight:normal;writing-mode:lr-tb;fill:#231f20;fill-opacity:1;fill-rule:nonzero;stroke:none;font-family:ArialMT;-inkscape-font-specification:ArialMT">Pattern A</tspan></text>
<g
               transform="scale(1,-1)"
               id="g100"><path
                 d="m 23.37646,-67.63867 c 0,0 0,36.25 0,36.25"
                 inkscape:connector-curvature="0"
                 id="path102"
                 style="fill:none;stroke:#231f20;stroke-width:0.5;stroke-linecap:butt;stroke-linejoin:miter;stroke-miterlimit:4;stroke-opacity:1;stroke-dasharray:none" /><path
                 d="m 120.12451,-67.63867 c 0,0 0,36.25 0,36.25"
                 inkscape:connector-curvature="0"
                 id="path104"
                 style="fill:none;stroke:#231f20;stroke-width:0.5;stroke-linecap:butt;stroke-linejoin:miter;stroke-miterlimit:4;stroke-opacity:1;stroke-dasharray:none" /><path
                 d="m 23.37646,-31.63867 c 0,0 -10.5,26.75 -10.5,26.75"
                 inkscape:connector-curvature="0"
                 id="path106"
                 style="fill:none;stroke:#231f20;stroke-width:0.5;stroke-linecap:butt;stroke-linejoin:miter;stroke-miterlimit:4;stroke-opacity:1;stroke-dasharray:none" /><path
                 d="m 120.12451,-31.63867 c 0,0 10.5,26.75 10.5,26.75"
                 inkscape:connector-curvature="0"
                 id="path108"
                 style="fill:none;stroke:#231f20;stroke-width:0.5;stroke-linecap:butt;stroke-linejoin:miter;stroke-miterlimit:4;stroke-opacity:1;stroke-dasharray:none" /><path
                 d="m 51.62646,-31.63867 c 0,0 -10.5,26.75 -10.5,26.75"
                 inkscape:connector-curvature="0"
                 id="path110"
                 style="fill:none;stroke:#231f20;stroke-width:0.5;stroke-linecap:butt;stroke-linejoin:miter;stroke-miterlimit:4;stroke-opacity:1;stroke-dasharray:none" /><path
                 d="m 93.12646,-31.63867 c 0,0 10.5,26.75 10.5,26.75"
                 inkscape:connector-curvature="0"
                 id="path112"
                 style="fill:none;stroke:#231f20;stroke-width:0.5;stroke-linecap:butt;stroke-linejoin:miter;stroke-miterlimit:4;stroke-opacity:1;stroke-dasharray:none" /><path
                 d="m 93.12646,-31.63867 c 0,0 0,26.75 0,26.75"
                 inkscape:connector-curvature="0"
                 id="path114"
                 style="fill:none;stroke:#231f20;stroke-width:0.5;stroke-linecap:butt;stroke-linejoin:miter;stroke-miterlimit:4;stroke-opacity:1;stroke-dasharray:none" /><path
                 d="m 51.62646,-31.63867 c 0,0 0,26.75 0,26.75"
                 inkscape:connector-curvature="0"
                 id="path116"
                 style="fill:none;stroke:#231f20;stroke-width:0.5;stroke-linecap:butt;stroke-linejoin:miter;stroke-miterlimit:4;stroke-opacity:1;stroke-dasharray:none" /><g
                 transform="scale(1,-1)"
                 id="g118"><text
                   transform="matrix(1,0,0,-1,54.66748,79.84668)"
                   id="text120"><tspan
                     x="0 5.336 9.7840004 12.008 14.232 18.68 21.344 25.792 28.016001"
                     y="0"
                     id="tspan122"
                     style="font-size:8px;font-variant:normal;font-weight:normal;writing-mode:lr-tb;fill:#231f20;fill-opacity:1;fill-rule:nonzero;stroke:none;font-family:ArialMT;-inkscape-font-specification:ArialMT">Pattern B</tspan></text>
<text
                   transform="matrix(1,0,0,-1,200.99805,73.42871)"
                   id="text124"><tspan
                     x="0 5.336 9.7840004 12.008 14.232 18.68 21.344 25.792 28.016001"
                     y="0"
                     id="tspan126"
                     style="font-size:8px;font-variant:normal;font-weight:normal;writing-mode:lr-tb;fill:#231f20;fill-opacity:1;fill-rule:nonzero;stroke:none;font-family:ArialMT;-inkscape-font-specification:ArialMT">Pattern C</tspan></text>
<g
                   transform="scale(1,-1)"
                   id="g128"><path
                     d="m 187.52832,-130.38818 c 0,0 -23,0 -23,0 0,0 0,-9.25 0,-9.25 0,0 23,0 23,0 0,0 0,9.25 0,9.25 z"
                     inkscape:connector-curvature="0"
                     id="path130"
                     style="fill:none;stroke:#231f20;stroke-width:0.5;stroke-linecap:butt;stroke-linejoin:miter;stroke-miterlimit:4;stroke-opacity:1;stroke-dasharray:none" /><g
                     transform="scale(1,-1)"
                     id="g132"><text
                       transform="matrix(1,0,0,-1,173.13818,132.1377)"
                       id="text134"><tspan
                         x="0"
                         y="0"
                         id="tspan136"
                         style="font-size:8px;font-variant:normal;font-weight:bold;writing-mode:lr-tb;fill:#eb222c;fill-opacity:1;fill-rule:nonzero;stroke:none;font-family:Arial;-inkscape-font-specification:Arial-BoldMT">A</tspan></text>
<g
                       transform="scale(1,-1)"
                       id="g138"><path
                         d="m 269.27832,-130.38818 c 0,0 -23,0 -23,0 0,0 0,-9.25 0,-9.25 0,0 23,0 23,0 0,0 0,9.25 0,9.25 z"
                         inkscape:connector-curvature="0"
                         id="path140"
                         style="fill:none;stroke:#231f20;stroke-width:0.5;stroke-linecap:butt;stroke-linejoin:miter;stroke-miterlimit:4;stroke-opacity:1;stroke-dasharray:none" /><g
                         transform="scale(1,-1)"
                         id="g142"><text
                           transform="matrix(1,0,0,-1,254.88818,132.1377)"
                           id="text144"><tspan
                             x="0"
                             y="0"
                             id="tspan146"
                             style="font-size:8px;font-variant:normal;font-weight:bold;writing-mode:lr-tb;fill:#ec008c;fill-opacity:1;fill-rule:nonzero;stroke:none;font-family:Arial;-inkscape-font-specification:Arial-BoldMT">A</tspan></text>
<g
                           transform="scale(1,-1)"
                           id="g148"><path
                             d="m 227.52832,-130.38818 c 0,0 -23,0 -23,0 0,0 0,-9.25 0,-9.25 0,0 23,0 23,0 0,0 0,9.25 0,9.25 z"
                             inkscape:connector-curvature="0"
                             id="path150"
                             style="fill:none;stroke:#231f20;stroke-width:0.5;stroke-linecap:butt;stroke-linejoin:miter;stroke-miterlimit:4;stroke-opacity:1;stroke-dasharray:none" /><g
                             transform="scale(1,-1)"
                             id="g152"><text
                               transform="matrix(1,0,0,-1,213.13818,132.1377)"
                               id="text154"><tspan
                                 x="0"
                                 y="0"
                                 id="tspan156"
                                 style="font-size:8px;font-variant:normal;font-weight:normal;writing-mode:lr-tb;fill:#333898;fill-opacity:1;fill-rule:nonzero;stroke:none;font-family:ArialMT;-inkscape-font-specification:ArialMT">C</tspan></text>
<g
                               transform="scale(1,-1)"
                               id="g158"><path
                                 d="m 66,-54.30469 c 0,0 -23,0 -23,0 0,0 0,-9.25 0,-9.25 0,0 23,0 23,0 0,0 0,9.25 0,9.25 z"
                                 inkscape:connector-curvature="0"
                                 id="path160"
                                 style="fill:none;stroke:#231f20;stroke-width:0.5;stroke-linecap:butt;stroke-linejoin:miter;stroke-miterlimit:4;stroke-opacity:1;stroke-dasharray:none" /><g
                                 transform="scale(1,-1)"
                                 id="g162"><text
                                   transform="matrix(1,0,0,-1,51.61084,56.05371)"
                                   id="text164"><tspan
                                   x="0"
                                   y="0"
                                   id="tspan166"
                                   style="font-size:8px;font-variant:normal;font-weight:normal;writing-mode:lr-tb;fill:#ed1c24;fill-opacity:1;fill-rule:nonzero;stroke:none;font-family:ArialMT;-inkscape-font-specification:ArialMT">A</tspan></text>
<g
                                   transform="scale(1,-1)"
                                   id="g168"><path
                                   d="m 97.75,-41.80469 c 0,0 -23,0 -23,0 0,0 0,-9.25 0,-9.25 0,0 23,0 23,0 0,0 0,9.25 0,9.25 z"
                                   inkscape:connector-curvature="0"
                                   id="path170"
                                   style="fill:none;stroke:#231f20;stroke-width:0.5;stroke-linecap:butt;stroke-linejoin:miter;stroke-miterlimit:4;stroke-opacity:1;stroke-dasharray:none" /><g
                                   transform="scale(1,-1)"
                                   id="g172"><text
                                   transform="matrix(1,0,0,-1,83.36133,43.55371)"
                                   id="text174"><tspan
                                   x="0"
                                   y="0"
                                   id="tspan176"
                                   style="font-size:8px;font-variant:normal;font-weight:normal;writing-mode:lr-tb;fill:#00adef;fill-opacity:1;fill-rule:nonzero;stroke:none;font-family:ArialMT;-inkscape-font-specification:ArialMT">T</tspan></text>
<g
                                   transform="scale(1,-1)"
                                   id="g178"><path
                                   d="m 41.25,-8.80469 c 0,0 -23,0 -23,0 0,0 0,-9.25 0,-9.25 0,0 23,0 23,0 0,0 0,9.25 0,9.25 z"
                                   inkscape:connector-curvature="0"
                                   id="path180"
                                   style="fill:none;stroke:#231f20;stroke-width:0.5;stroke-linecap:butt;stroke-linejoin:miter;stroke-miterlimit:4;stroke-opacity:1;stroke-dasharray:none" /><g
                                   transform="scale(1,-1)"
                                   id="g182"><text
                                   transform="matrix(1,0,0,-1,26.86084,10.55371)"
                                   id="text184"><tspan
                                   x="0"
                                   y="0"
                                   id="tspan186"
                                   style="font-size:8px;font-variant:normal;font-weight:bold;writing-mode:lr-tb;fill:#ed1c24;fill-opacity:1;fill-rule:nonzero;stroke:none;font-family:Arial;-inkscape-font-specification:Arial-BoldMT">A</tspan></text>
<g
                                   transform="scale(1,-1)"
                                   id="g188"><path
                                   d="m 125.5,-8.80469 c 0,0 -23,0 -23,0 0,0 0,-9.25 0,-9.25 0,0 23,0 23,0 0,0 0,9.25 0,9.25 z"
                                   inkscape:connector-curvature="0"
                                   id="path190"
                                   style="fill:none;stroke:#231f20;stroke-width:0.5;stroke-linecap:butt;stroke-linejoin:miter;stroke-miterlimit:4;stroke-opacity:1;stroke-dasharray:none" /><g
                                   transform="scale(1,-1)"
                                   id="g192"><text
                                   transform="matrix(1,0,0,-1,111.11133,10.55371)"
                                   id="text194"><tspan
                                   x="0"
                                   y="0"
                                   id="tspan196"
                                   style="font-size:8px;font-variant:normal;font-weight:bold;writing-mode:lr-tb;fill:#ed1c24;fill-opacity:1;fill-rule:nonzero;stroke:none;font-family:Arial;-inkscape-font-specification:Arial-BoldMT">A</tspan></text>
<g
                                   transform="scale(1,-1)"
                                   id="g198"><path
                                   d="m 78.5,-18.05469 c 0,0 -23,0 -23,0 0,0 0,-9.25 0,-9.25 0,0 23,0 23,0 0,0 0,9.25 0,9.25 z"
                                   inkscape:connector-curvature="0"
                                   id="path200"
                                   style="fill:none;stroke:#231f20;stroke-width:0.5;stroke-linecap:butt;stroke-linejoin:miter;stroke-miterlimit:4;stroke-opacity:1;stroke-dasharray:none" /><g
                                   transform="scale(1,-1)"
                                   id="g202"><text
                                   transform="matrix(1,0,0,-1,64.11084,19.80371)"
                                   id="text204"><tspan
                                   x="0"
                                   y="0"
                                   id="tspan206"
                                   style="font-size:8px;font-variant:normal;font-weight:normal;writing-mode:lr-tb;fill:#ed1c24;fill-opacity:1;fill-rule:nonzero;stroke:none;font-family:ArialMT;-inkscape-font-specification:ArialMT">A</tspan></text>
<g
                                   transform="scale(1,-1)"
                                   id="g208"><path
                                   d="m 88,-7.05469 c 0,0 -23,0 -23,0 0,0 0,-9.25 0,-9.25 0,0 23,0 23,0 0,0 0,9.25 0,9.25 z"
                                   inkscape:connector-curvature="0"
                                   id="path210"
                                   style="fill:none;stroke:#231f20;stroke-width:0.5;stroke-linecap:butt;stroke-linejoin:miter;stroke-miterlimit:4;stroke-opacity:1;stroke-dasharray:none" /><g
                                   transform="scale(1,-1)"
                                   id="g212"><text
                                   transform="matrix(1,0,0,-1,73.61084,8.80371)"
                                   id="text214"><tspan
                                   x="0"
                                   y="0"
                                   id="tspan216"
                                   style="font-size:8px;font-variant:normal;font-weight:normal;writing-mode:lr-tb;fill:#00adef;fill-opacity:1;fill-rule:nonzero;stroke:none;font-family:ArialMT;-inkscape-font-specification:ArialMT">T</tspan></text>
<text
                                   transform="matrix(1,0,0,-1,167.95703,11.4707)"
                                   id="text218"><tspan
                                   x="0"
                                   y="0"
                                   id="tspan220"
                                   style="font-size:8px;font-variant:normal;font-weight:bold;writing-mode:lr-tb;fill:#ed1c24;fill-opacity:1;fill-rule:nonzero;stroke:none;font-family:Arial;-inkscape-font-specification:Arial-BoldMT">G</tspan></text>
<text
                                   transform="matrix(1,0,0,-1,180.95703,11.30469)"
                                   id="text222"><tspan
                                   x="0"
                                   y="0"
                                   id="tspan224"
                                   style="font-size:8px;font-variant:normal;font-weight:normal;writing-mode:lr-tb;fill:#00adef;fill-opacity:1;fill-rule:nonzero;stroke:none;font-family:ArialMT;-inkscape-font-specification:ArialMT">C</tspan></text>
<g
                                   transform="scale(1,-1)"
                                   id="g226"><path
                                   d="m 189.02832,-9.38867 c 0,0 -23,0 -23,0 0,0 0,-9.25 0,-9.25 0,0 23,0 23,0 0,0 0,9.25 0,9.25 z"
                                   inkscape:connector-curvature="0"
                                   id="path228"
                                   style="fill:none;stroke:#231f20;stroke-width:0.5;stroke-linecap:butt;stroke-linejoin:miter;stroke-miterlimit:4;stroke-opacity:1;stroke-dasharray:none" /><g
                                   transform="scale(1,-1)"
                                   id="g230"><text
                                   transform="matrix(1,0,0,-1,252.20703,11.4707)"
                                   id="text232"><tspan
                                   x="0"
                                   y="0"
                                   id="tspan234"
                                   style="font-size:8px;font-variant:normal;font-weight:normal;writing-mode:lr-tb;fill:#2e3192;fill-opacity:1;fill-rule:nonzero;stroke:none;font-family:ArialMT;-inkscape-font-specification:ArialMT">A</tspan></text>
<text
                                   transform="matrix(1,0,0,-1,265.20703,11.30469)"
                                   id="text236"><tspan
                                   x="0"
                                   y="0"
                                   id="tspan238"
                                   style="font-size:8px;font-variant:normal;font-weight:bold;writing-mode:lr-tb;fill:#ec008c;fill-opacity:1;fill-rule:nonzero;stroke:none;font-family:Arial;-inkscape-font-specification:Arial-BoldMT">T</tspan></text>
<g
                                   transform="scale(1,-1)"
                                   id="g240"><path
                                   d="m 273.27832,-9.38867 c 0,0 -23,0 -23,0 0,0 0,-9.25 0,-9.25 0,0 23,0 23,0 0,0 0,9.25 0,9.25 z"
                                   inkscape:connector-curvature="0"
                                   id="path242"
                                   style="fill:none;stroke:#231f20;stroke-width:0.5;stroke-linecap:butt;stroke-linejoin:miter;stroke-miterlimit:4;stroke-opacity:1;stroke-dasharray:none" /><g
                                   transform="scale(1,-1)"
                                   id="g244"><text
                                   transform="matrix(1,0,0,-1,209.70703,11.4707)"
                                   id="text246"><tspan
                                   x="0"
                                   y="0"
                                   id="tspan248"
                                   style="font-size:8px;font-variant:normal;font-weight:normal;writing-mode:lr-tb;fill:#2e3192;fill-opacity:1;fill-rule:nonzero;stroke:none;font-family:ArialMT;-inkscape-font-specification:ArialMT">A</tspan></text>
<text
                                   transform="matrix(1,0,0,-1,222.70703,11.30469)"
                                   id="text250"><tspan
                                   x="0"
                                   y="0"
                                   id="tspan252"
                                   style="font-size:8px;font-variant:normal;font-weight:normal;writing-mode:lr-tb;fill:#00adef;fill-opacity:1;fill-rule:nonzero;stroke:none;font-family:ArialMT;-inkscape-font-specification:ArialMT">C</tspan></text>
<g
                                   transform="scale(1,-1)"
                                   id="g254"><path
                                   d="m 230.77832,-9.38867 c 0,0 -23,0 -23,0 0,0 0,-9.25 0,-9.25 0,0 23,0 23,0 0,0 0,9.25 0,9.25 z"
                                   inkscape:connector-curvature="0"
                                   id="path256"
                                   style="fill:none;stroke:#231f20;stroke-width:0.5;stroke-linecap:butt;stroke-linejoin:miter;stroke-miterlimit:4;stroke-opacity:1;stroke-dasharray:none" /><g
                                   transform="scale(1,-1)"
                                   id="g258"><text
                                   transform="matrix(1,0,0,-1,209.20703,53.9707)"
                                   id="text260"><tspan
                                   x="0"
                                   y="0"
                                   id="tspan262"
                                   style="font-size:8px;font-variant:normal;font-weight:normal;writing-mode:lr-tb;fill:#2e3192;fill-opacity:1;fill-rule:nonzero;stroke:none;font-family:ArialMT;-inkscape-font-specification:ArialMT">A</tspan></text>
<text
                                   transform="matrix(1,0,0,-1,222.20703,53.80469)"
                                   id="text264"><tspan
                                   x="0"
                                   y="0"
                                   id="tspan266"
                                   style="font-size:8px;font-variant:normal;font-weight:normal;writing-mode:lr-tb;fill:#00adef;fill-opacity:1;fill-rule:nonzero;stroke:none;font-family:ArialMT;-inkscape-font-specification:ArialMT">C</tspan></text>
<g
                                   transform="scale(1,-1)"
                                   id="g268"><path
                                   d="m 230.27832,-51.88867 c 0,0 -23,0 -23,0 0,0 0,-9.25 0,-9.25 0,0 23,0 23,0 0,0 0,9.25 0,9.25 z"
                                   inkscape:connector-curvature="0"
                                   id="path270"
                                   style="fill:none;stroke:#231f20;stroke-width:0.5;stroke-linecap:butt;stroke-linejoin:miter;stroke-miterlimit:4;stroke-opacity:1;stroke-dasharray:none" /></g></g></g></g></g></g></g></g></g></g></g></g></g></g></g></g></g></g></g></g></g></g></g></g></g></g></g></g></g></g></g></g></svg>