<?xml version="1.0" encoding="UTF-8" standalone="no"?>
<!-- Created with Inkscape (http://www.inkscape.org/) -->

<svg
   xmlns:dc="http://purl.org/dc/elements/1.1/"
   xmlns:cc="http://creativecommons.org/ns#"
   xmlns:rdf="http://www.w3.org/1999/02/22-rdf-syntax-ns#"
   xmlns:svg="http://www.w3.org/2000/svg"
   xmlns="http://www.w3.org/2000/svg"
   xmlns:inkscape="http://www.inkscape.org/namespaces/inkscape"
   version="1.1"
   width="270"
   height="270"
   id="svg2"
   xml:space="preserve"><metadata
     id="metadata8"><rdf:RDF><cc:Work
         rdf:about=""><dc:format>image/svg+xml</dc:format><dc:type
           rdf:resource="http://purl.org/dc/dcmitype/StillImage" /></cc:Work></rdf:RDF></metadata><defs
     id="defs6"><clipPath
       id="clipPath18"><path
         d="m 49.2,61.2 153.6,0 0,141.6 -153.6,0 0,-141.6 z"
         inkscape:connector-curvature="0"
         id="path20" /></clipPath><clipPath
       id="clipPath106"><path
         d="m 49.2,61.2 153.6,0 0,141.6 -153.6,0 0,-141.6 z"
         inkscape:connector-curvature="0"
         id="path108" /></clipPath></defs><g
     transform="matrix(1.25,0,0,-1.25,0,270)"
     id="g10"><g
       id="g12" /><g
       id="g14"><g
         clip-path="url(#clipPath18)"
         id="g16"><path
           d="m 54.89,66.44 1.07,0 1.07,0 1.07,0 1.07,0 1.07,0 1.06,0 1.07,0 1.07,0 1.07,0 1.07,0 1.07,0 1.07,0 1.07,0 1.07,0 1.07,0 1.07,0 1.07,0 1.07,0 1.07,0 1.07,0 1.07,0 1.06,0 1.07,0 1.07,0 1.07,0 1.07,0 1.07,0 1.07,0.01 1.07,0 1.07,0 1.07,0 1.07,0 1.07,0 1.07,0 1.07,0 1.07,0 1.06,0 1.07,0 1.07,0 1.07,0 1.07,0 1.07,0.01 1.07,0 1.07,0 1.07,0.01 1.07,0 1.07,0.01 1.07,0.01 1.07,0.01 1.07,0.01 1.07,0.02 1.06,0.02 1.07,0.02 1.07,0.04 1.07,0.04 1.07,0.04 1.07,0.07 1.07,0.07 1.07,0.09 1.07,0.11 1.07,0.14 1.07,0.16 1.07,0.21 1.07,0.24 1.07,0.29 1.07,0.35 1.06,0.49 1.07,0.78 1.07,1.02 1.07,1.3 1.07,1.64 1.07,2.01 1.07,2.39 1.07,2.78 1.07,3.14 1.07,3.44 1.07,3.7 1.07,3.91 1.07,4.07 1.07,4.19 1.07,4.27 1.06,4.33 1.07,4.38 1.07,4.39 1.07,4.41 1.07,4.41 1.07,4.4 1.07,4.4 1.07,4.38 1.07,4.36 1.07,4.34 1.07,4.31 1.07,4.29 1.07,4.25 1.07,4.22 1.07,4.17 1.06,4.12 1.07,4.05 1.07,3.98 1.07,3.88 1.07,0.46 1.07,0.36 1.07,0.28 1.07,0.23 1.07,0.18 1.07,0.14 1.07,0.11 1.07,0.09 1.07,0.07 1.07,0.05 1.07,0.04 1.06,0.04 1.07,0.02 1.07,0.02 1.07,0.02 1.07,0.01 1.07,0.01 1.07,0 1.07,0.01 1.07,0 1.07,0 1.07,0 1.07,0.01 1.07,0 1.07,0 1.07,0 1.07,0 1.06,0 1.07,0 1.07,0 1.07,0 1.07,0 1.07,0"
           inkscape:connector-curvature="0"
           id="path22"
           style="fill:none;stroke:#000000;stroke-width:1.5;stroke-linecap:round;stroke-linejoin:round;stroke-miterlimit:10;stroke-opacity:1;stroke-dasharray:none" /></g></g><g
       id="g24"><path
         d="m 54.89,61.2 142.58,0"
         inkscape:connector-curvature="0"
         id="path26"
         style="fill:none;stroke:#000000;stroke-width:0.75;stroke-linecap:round;stroke-linejoin:round;stroke-miterlimit:10;stroke-opacity:1;stroke-dasharray:none" /><path
         d="m 54.89,61.2 0,-6"
         inkscape:connector-curvature="0"
         id="path28"
         style="fill:none;stroke:#000000;stroke-width:0.75;stroke-linecap:round;stroke-linejoin:round;stroke-miterlimit:10;stroke-opacity:1;stroke-dasharray:none" /><path
         d="m 90.53,61.2 0,-6"
         inkscape:connector-curvature="0"
         id="path30"
         style="fill:none;stroke:#000000;stroke-width:0.75;stroke-linecap:round;stroke-linejoin:round;stroke-miterlimit:10;stroke-opacity:1;stroke-dasharray:none" /><path
         d="m 126.18,61.2 0,-6"
         inkscape:connector-curvature="0"
         id="path32"
         style="fill:none;stroke:#000000;stroke-width:0.75;stroke-linecap:round;stroke-linejoin:round;stroke-miterlimit:10;stroke-opacity:1;stroke-dasharray:none" /><path
         d="m 161.82,61.2 0,-6"
         inkscape:connector-curvature="0"
         id="path34"
         style="fill:none;stroke:#000000;stroke-width:0.75;stroke-linecap:round;stroke-linejoin:round;stroke-miterlimit:10;stroke-opacity:1;stroke-dasharray:none" /><path
         d="m 197.47,61.2 0,-6"
         inkscape:connector-curvature="0"
         id="path36"
         style="fill:none;stroke:#000000;stroke-width:0.75;stroke-linecap:round;stroke-linejoin:round;stroke-miterlimit:10;stroke-opacity:1;stroke-dasharray:none" /><text
         transform="matrix(1,0,0,-1,40.85,39.6)"
         id="text38"><tspan
           x="0 5.8400002 11.4 16.959999 22.52"
           y="0"
           id="tspan40"
           style="font-size:10px;font-variant:normal;font-weight:normal;writing-mode:lr-tb;fill:#000000;fill-opacity:1;fill-rule:nonzero;stroke:none;font-family:Helvetica;-inkscape-font-specification:Helvetica">−1000</tspan></text>
<text
         transform="matrix(1,0,0,-1,79.27,39.6)"
         id="text42"><tspan
           x="0 5.8400002 11.4 16.959999"
           y="0"
           id="tspan44"
           style="font-size:10px;font-variant:normal;font-weight:normal;writing-mode:lr-tb;fill:#000000;fill-opacity:1;fill-rule:nonzero;stroke:none;font-family:Helvetica;-inkscape-font-specification:Helvetica">−500</tspan></text>
<text
         transform="matrix(1,0,0,-1,123.4,39.6)"
         id="text46"><tspan
           x="0"
           y="0"
           id="tspan48"
           style="font-size:10px;font-variant:normal;font-weight:normal;writing-mode:lr-tb;fill:#000000;fill-opacity:1;fill-rule:nonzero;stroke:none;font-family:Helvetica;-inkscape-font-specification:Helvetica">0</tspan></text>
<text
         transform="matrix(1,0,0,-1,153.48,39.6)"
         id="text50"><tspan
           x="0 5.5599999 11.12"
           y="0"
           id="tspan52"
           style="font-size:10px;font-variant:normal;font-weight:normal;writing-mode:lr-tb;fill:#000000;fill-opacity:1;fill-rule:nonzero;stroke:none;font-family:Helvetica;-inkscape-font-specification:Helvetica">500</tspan></text>
<text
         transform="matrix(1,0,0,-1,186.35,39.6)"
         id="text54"><tspan
           x="0 5.5599999 11.12 16.68"
           y="0"
           id="tspan56"
           style="font-size:10px;font-variant:normal;font-weight:normal;writing-mode:lr-tb;fill:#000000;fill-opacity:1;fill-rule:nonzero;stroke:none;font-family:Helvetica;-inkscape-font-specification:Helvetica">1000</tspan></text>
<path
         d="m 49.2,66.44 0,119.04"
         inkscape:connector-curvature="0"
         id="path58"
         style="fill:none;stroke:#000000;stroke-width:0.75;stroke-linecap:round;stroke-linejoin:round;stroke-miterlimit:10;stroke-opacity:1;stroke-dasharray:none" /><path
         d="m 49.2,66.44 -6,0"
         inkscape:connector-curvature="0"
         id="path60"
         style="fill:none;stroke:#000000;stroke-width:0.75;stroke-linecap:round;stroke-linejoin:round;stroke-miterlimit:10;stroke-opacity:1;stroke-dasharray:none" /><path
         d="m 49.2,86.28 -6,0"
         inkscape:connector-curvature="0"
         id="path62"
         style="fill:none;stroke:#000000;stroke-width:0.75;stroke-linecap:round;stroke-linejoin:round;stroke-miterlimit:10;stroke-opacity:1;stroke-dasharray:none" /><path
         d="m 49.2,106.12 -6,0"
         inkscape:connector-curvature="0"
         id="path64"
         style="fill:none;stroke:#000000;stroke-width:0.75;stroke-linecap:round;stroke-linejoin:round;stroke-miterlimit:10;stroke-opacity:1;stroke-dasharray:none" /><path
         d="m 49.2,125.96 -6,0"
         inkscape:connector-curvature="0"
         id="path66"
         style="fill:none;stroke:#000000;stroke-width:0.75;stroke-linecap:round;stroke-linejoin:round;stroke-miterlimit:10;stroke-opacity:1;stroke-dasharray:none" /><path
         d="m 49.2,145.8 -6,0"
         inkscape:connector-curvature="0"
         id="path68"
         style="fill:none;stroke:#000000;stroke-width:0.75;stroke-linecap:round;stroke-linejoin:round;stroke-miterlimit:10;stroke-opacity:1;stroke-dasharray:none" /><path
         d="m 49.2,165.64 -6,0"
         inkscape:connector-curvature="0"
         id="path70"
         style="fill:none;stroke:#000000;stroke-width:0.75;stroke-linecap:round;stroke-linejoin:round;stroke-miterlimit:10;stroke-opacity:1;stroke-dasharray:none" /><path
         d="m 49.2,185.48 -6,0"
         inkscape:connector-curvature="0"
         id="path72"
         style="fill:none;stroke:#000000;stroke-width:0.75;stroke-linecap:round;stroke-linejoin:round;stroke-miterlimit:10;stroke-opacity:1;stroke-dasharray:none" /><text
         transform="matrix(0,1,1,0,34.8,53.93)"
         id="text74"><tspan
           x="0 5.5599999 8.3400002 13.9 19.459999"
           y="0"
           id="tspan76"
           style="font-size:10px;font-variant:normal;font-weight:normal;writing-mode:lr-tb;fill:#000000;fill-opacity:1;fill-rule:nonzero;stroke:none;font-family:Helvetica;-inkscape-font-specification:Helvetica">0.000</tspan></text>
<text
         transform="matrix(0,1,1,0,34.8,93.61)"
         id="text78"><tspan
           x="0 5.5599999 8.3400002 13.9 19.459999"
           y="0"
           id="tspan80"
           style="font-size:10px;font-variant:normal;font-weight:normal;writing-mode:lr-tb;fill:#000000;fill-opacity:1;fill-rule:nonzero;stroke:none;font-family:Helvetica;-inkscape-font-specification:Helvetica">0.002</tspan></text>
<text
         transform="matrix(0,1,1,0,34.8,133.29)"
         id="text82"><tspan
           x="0 5.5599999 8.3400002 13.9 19.459999"
           y="0"
           id="tspan84"
           style="font-size:10px;font-variant:normal;font-weight:normal;writing-mode:lr-tb;fill:#000000;fill-opacity:1;fill-rule:nonzero;stroke:none;font-family:Helvetica;-inkscape-font-specification:Helvetica">0.004</tspan></text>
<text
         transform="matrix(0,1,1,0,34.8,172.97)"
         id="text86"><tspan
           x="0 5.5599999 8.3400002 13.9 19.459999"
           y="0"
           id="tspan88"
           style="font-size:10px;font-variant:normal;font-weight:normal;writing-mode:lr-tb;fill:#000000;fill-opacity:1;fill-rule:nonzero;stroke:none;font-family:Helvetica;-inkscape-font-specification:Helvetica">0.006</tspan></text>
<path
         d="m 49.2,61.2 153.6,0 0,141.6 -153.6,0 0,-141.6"
         inkscape:connector-curvature="0"
         id="path90"
         style="fill:none;stroke:#000000;stroke-width:0.75;stroke-linecap:round;stroke-linejoin:round;stroke-miterlimit:10;stroke-opacity:1;stroke-dasharray:none" /></g><g
       id="g92"><text
         transform="matrix(1,0,0,-1,95.99,15.6)"
         id="text94"><tspan
           x="0 5.5599999 7.7800002 12.78 15.56 21.120001 26.68 31.68 37.240002 40.02 43.349998 48.349998 56.68"
           y="0"
           id="tspan96"
           style="font-size:10px;font-variant:normal;font-weight:normal;writing-mode:lr-tb;fill:#000000;fill-opacity:1;fill-rule:nonzero;stroke:none;font-family:Helvetica;-inkscape-font-specification:Helvetica">distance (km)</tspan></text>
<text
         transform="matrix(0,1,1,0,10.8,98.08)"
         id="text98"><tspan
           x="0 5.5599999 8.8900003 14.45 20.01 22.790001 28.35 31.129999 33.91 38.91 44.470001 48.099998 53.099998 55.32 60.07 65.629997"
           y="0"
           id="tspan100"
           style="font-size:10px;font-variant:normal;font-weight:normal;writing-mode:lr-tb;fill:#000000;fill-opacity:1;fill-rule:nonzero;stroke:none;font-family:Helvetica;-inkscape-font-specification:Helvetica">prob of survival</tspan></text>
</g><g
       id="g102"><g
         clip-path="url(#clipPath106)"
         id="g104"><path
           d="m 49.2,190.77 153.6,0"
           inkscape:connector-curvature="0"
           id="path110"
           style="fill:none;stroke:#ff0000;stroke-width:1.5;stroke-linecap:round;stroke-linejoin:round;stroke-miterlimit:10;stroke-opacity:1;stroke-dasharray:4.5, 7.5;stroke-dashoffset:0" /><path
           d="m 126.18,61.2 0,141.6"
           inkscape:connector-curvature="0"
           id="path112"
           style="fill:none;stroke:#00ff00;stroke-width:0.75;stroke-linecap:round;stroke-linejoin:round;stroke-miterlimit:10;stroke-opacity:1;stroke-dasharray:none" /><path
           d="m 126.53,61.2 0,141.6"
           inkscape:connector-curvature="0"
           id="path114"
           style="fill:none;stroke:#00ff00;stroke-width:0.75;stroke-linecap:round;stroke-linejoin:round;stroke-miterlimit:10;stroke-opacity:1;stroke-dasharray:none" /><path
           d="m 160.75,61.2 0,141.6"
           inkscape:connector-curvature="0"
           id="path116"
           style="fill:none;stroke:#00ff00;stroke-width:0.75;stroke-linecap:round;stroke-linejoin:round;stroke-miterlimit:10;stroke-opacity:1;stroke-dasharray:none" /><path
           d="m 54.89,66.45 1.07,0 1.07,0 1.07,0 1.07,0 1.07,0 1.06,0 1.07,0 1.07,0 1.07,0 1.07,0 1.07,0 1.07,0 1.07,0 1.07,0 1.07,0 1.07,0 1.07,0 1.07,0 1.07,0 1.07,0 1.07,0 1.06,0 1.07,0 1.07,0 1.07,0 1.07,0 1.07,0 1.07,0 1.07,0 1.07,0 1.07,0 1.07,0 1.07,0 1.07,0 1.07,0 1.07,0 1.06,0 1.07,0 1.07,0.01 1.07,0 1.07,0 1.07,0 1.07,0 1.07,0.01 1.07,0 1.07,0.01 1.07,0 1.07,0.01 1.07,0.01 1.07,0.02 1.07,0.01 1.06,0.02 1.07,0.03 1.07,0.03 1.07,0.04 1.07,0.05 1.07,0.06 1.07,0.07 1.07,0.1 1.07,0.11 1.07,0.13 1.07,0.17 1.07,0.2 1.07,0.24 1.07,0.29 1.07,0.35 1.06,0.49 1.07,0.79 1.07,1.02 1.07,1.3 1.07,1.64 1.07,2.01 1.07,2.39 1.07,2.78 1.07,3.13 1.07,3.45 1.07,3.7 1.07,3.91 1.07,4.06 1.07,4.19 1.07,4.27 1.06,4.34 1.07,4.37 1.07,4.39 1.07,4.41 1.07,4.41 1.07,4.4 1.07,4.4 1.07,4.38 1.07,4.36 1.07,4.34 1.07,4.31 1.07,4.29 1.07,4.25 1.07,4.22 1.07,4.17 1.06,4.12 1.07,4.05 1.07,3.98 1.07,3.88 1.07,0.46 1.07,0.36 1.07,0.28 1.07,0.23 1.07,0.18 1.07,0.14 1.07,0.11 1.07,0.09 1.07,0.07 1.07,0.05 1.07,0.04 1.06,0.04 1.07,0.02 1.07,0.02 1.07,0.02 1.07,0.01 1.07,0.01 1.07,0 1.07,0.01 1.07,0 1.07,0 1.07,0 1.07,0.01 1.07,0 1.07,0 1.07,0 1.07,0 1.06,0 1.07,0 1.07,0 1.07,0 1.07,0 1.07,0"
           inkscape:connector-curvature="0"
           id="path118"
           style="fill:none;stroke:#ff0000;stroke-width:0.75;stroke-linecap:round;stroke-linejoin:round;stroke-miterlimit:10;stroke-opacity:1;stroke-dasharray:2.25, 3.75;stroke-dashoffset:0" /><path
           d="m 54.89,66.43 1.07,0 1.07,0 1.07,0 1.07,0 1.07,0 1.06,0 1.07,0 1.07,0 1.07,0 1.07,0 1.07,0 1.07,0 1.07,0 1.07,0 1.07,0 1.07,0 1.07,0 1.07,0 1.07,0 1.07,0 1.07,0 1.06,0 1.07,0 1.07,0 1.07,0 1.07,0 1.07,0 1.07,0 1.07,0 1.07,0 1.07,0 1.07,0 1.07,0 1.07,0 1.07,0 1.07,0 1.06,0 1.07,0 1.07,0 1.07,0 1.07,0 1.07,0 1.07,0 1.07,0 1.07,0 1.07,0 1.07,0 1.07,0 1.07,0 1.07,0 1.07,0 1.06,0 1.07,0 1.07,0 1.07,0 1.07,0 1.07,0 1.07,0 1.07,0 1.07,0 1.07,0 1.07,0 1.07,0 1.07,0 1.07,0 1.07,0 1.06,1.33 1.07,3.93 1.07,3.93 1.07,3.94 1.07,3.93 1.07,3.93 1.07,3.94 1.07,3.93 1.07,3.94 1.07,3.93 1.07,3.93 1.07,3.94 1.07,3.93 1.07,3.93 1.07,3.94 1.06,3.93 1.07,3.94 1.07,3.93 1.07,3.93 1.07,3.94 1.07,3.93 1.07,3.93 1.07,3.94 1.07,3.93 1.07,3.94 1.07,3.93 1.07,3.93 1.07,3.94 1.07,3.93 1.07,3.93 1.06,3.94 1.07,3.93 1.07,3.93 1.07,3.93 1.07,0 1.07,0 1.07,0 1.07,0 1.07,0 1.07,0 1.07,0 1.07,0 1.07,0 1.07,0 1.07,0 1.06,0 1.07,0 1.07,0 1.07,0 1.07,0 1.07,0 1.07,0 1.07,0 1.07,0 1.07,0 1.07,0 1.07,0 1.07,0 1.07,0 1.07,0 1.07,0 1.06,0 1.07,0 1.07,0 1.07,0 1.07,0 1.07,0"
           inkscape:connector-curvature="0"
           id="path120"
           style="fill:none;stroke:#000000;stroke-width:0.75;stroke-linecap:round;stroke-linejoin:round;stroke-miterlimit:10;stroke-opacity:1;stroke-dasharray:none" /><path
           d="m 49.2,202.8 98.3,0 0,-48 -98.3,0 0,48 z"
           inkscape:connector-curvature="0"
           id="path122"
           style="fill:#ffffff;fill-opacity:1;fill-rule:nonzero;stroke:#000000;stroke-width:0.75;stroke-linecap:round;stroke-linejoin:round;stroke-miterlimit:10;stroke-opacity:1;stroke-dasharray:none" /><path
           d="m 58.2,190.8 18,0"
           inkscape:connector-curvature="0"
           id="path124"
           style="fill:none;stroke:#000000;stroke-width:1.5;stroke-linecap:round;stroke-linejoin:round;stroke-miterlimit:10;stroke-opacity:1;stroke-dasharray:none" /><path
           d="m 58.2,178.8 18,0"
           inkscape:connector-curvature="0"
           id="path126"
           style="fill:none;stroke:#000000;stroke-width:0.75;stroke-linecap:round;stroke-linejoin:round;stroke-miterlimit:10;stroke-opacity:1;stroke-dasharray:none" /><path
           d="m 58.2,166.8 18,0"
           inkscape:connector-curvature="0"
           id="path128"
           style="fill:none;stroke:#00ff00;stroke-width:0.75;stroke-linecap:round;stroke-linejoin:round;stroke-miterlimit:10;stroke-opacity:1;stroke-dasharray:none" /><text
           transform="matrix(1,0,0,-1,85.2,187.21)"
           id="text130"><tspan
             x="0 2.78 6.2600002 11.82 14.6"
             y="0"
             id="tspan132"
             style="font-size:10px;font-variant:normal;font-weight:normal;writing-mode:lr-tb;fill:#000000;fill-opacity:1;fill-rule:nonzero;stroke:none;font-family:Helvetica;-inkscape-font-specification:Helvetica">truth</tspan></text>
<text
           transform="matrix(1,0,0,-1,85.2,175.21)"
           id="text134"><tspan
             x="0 5.5599999 9.4499998 14.45 17.23 21.98 27.540001"
             y="0"
             id="tspan136"
             style="font-size:10px;font-variant:normal;font-weight:normal;writing-mode:lr-tb;fill:#000000;fill-opacity:1;fill-rule:nonzero;stroke:none;font-family:Helvetica;-inkscape-font-specification:Helvetica">2*s/var</tspan></text>
<text
           transform="matrix(1,0,0,-1,85.2,163.21)"
           id="text138"><tspan
             x="0 5 7.2199998 9.4399996 15 20.559999 23.34 25.559999 31.120001 36.119999 41.68 44.459999 46.68 52.240002"
             y="0"
             id="tspan140"
             style="font-size:10px;font-variant:normal;font-weight:normal;writing-mode:lr-tb;fill:#000000;fill-opacity:1;fill-rule:nonzero;stroke:none;font-family:Helvetica;-inkscape-font-specification:Helvetica">cline location</tspan></text>
</g></g></g></svg>